<svg width="214" height="97" viewBox="0 0 214 97" fill="none" xmlns="http://www.w3.org/2000/svg">
<path d="M182.715 52.9415H177.643C176.813 63.5567 174.185 68.2053 168.282 72.16C168.052 72.2987 167.775 71.8824 167.959 71.6049C171.741 65.9157 173.17 61.6835 173.631 52.9415H171.233C170.127 52.9415 169.02 53.0803 167.544 53.3578L167.037 50.7907C168.651 51.207 169.896 51.3457 171.095 51.3457H173.723C173.77 49.3337 173.816 47.1829 173.816 44.6852V41.6324H172.202C171.279 41.6324 170.357 41.7712 169.112 42.0487L168.605 39.4816C169.988 39.8979 171.003 40.0367 172.063 40.0367H186.912C188.664 36.9146 189.217 36.3595 189.54 36.3595C189.955 36.3595 190.462 36.9146 192.076 38.9266C192.768 39.8285 193.137 40.453 193.137 40.9386C193.137 41.4243 192.999 41.6324 192.537 41.6324H186.681V51.3457H187.834C189.863 47.7379 190.416 47.1829 190.739 47.1829C191.154 47.1829 191.615 47.7379 193.414 50.0969C194.151 51.1376 194.52 51.762 194.52 52.2477C194.52 52.7334 194.382 52.9415 193.921 52.9415H186.681C186.727 59.2551 186.866 66.5401 186.866 68.9684C186.866 70.8417 185.943 71.6049 184.422 71.6049C183.13 71.6049 182.531 71.0499 182.531 69.4541C182.531 68.1359 182.715 63.9036 182.715 55.7861V52.9415ZM177.735 51.3457H182.715V41.6324H177.966C177.966 44.8933 177.92 48.0848 177.735 51.3457ZM186.543 31.2253V32.1273C186.543 33.8618 185.759 34.625 184.191 34.625C182.946 34.625 182.393 34.0699 182.393 32.5436C182.393 30.1152 182.485 27.6175 182.485 17.6961C182.485 15.129 182.439 12.4925 182.3 9.85608C184.56 11.2437 184.883 11.5906 187.004 13.3945H195.489C197.103 10.6886 197.472 10.2724 197.84 10.2724C198.302 10.2724 198.67 10.6886 200.377 12.7701C201.161 13.8108 201.437 14.2964 201.437 14.8515C201.437 15.5453 201.161 15.9616 200.192 16.8635V25.1892C200.192 64.0424 200.238 65.8463 200.238 67.7196C200.238 69.9398 199.777 71.5355 198.809 72.5762C197.979 73.4782 196.78 73.8945 195.258 73.8945C194.382 73.8945 194.336 73.7557 194.151 72.2987C193.875 69.8704 192.906 68.4828 189.771 67.2339C189.54 67.1645 189.54 66.4014 189.771 66.4014C192.399 66.6789 193.46 66.7483 195.35 66.7483C195.811 66.7483 195.904 66.5401 195.904 65.7769V31.2253H186.543ZM195.904 21.3039V14.9903H186.543V21.3039H195.904ZM186.543 22.8996V29.6296H195.904V22.8996H186.543ZM165.1 31.2253V71.1886C165.1 73.0619 164.224 73.8945 162.518 73.8945C161.181 73.8945 160.627 73.27 160.627 71.4661C160.627 67.1645 160.904 61.1978 160.904 40.6611C160.904 30.3928 160.858 20.1244 160.581 9.85608C162.979 11.2437 163.302 11.5212 165.469 13.3945H173.539C175.107 10.6886 175.476 10.2724 175.845 10.2724C176.306 10.2724 176.675 10.6886 178.335 12.7007C179.073 13.6026 179.349 14.0883 179.349 14.6433C179.349 15.2678 179.026 15.7534 178.012 16.7248V19.2919C178.012 26.0218 178.104 30.7397 178.104 32.266C178.104 33.8618 177.228 34.5556 175.614 34.5556C174.415 34.5556 173.954 34.0006 173.954 32.5436V31.2253H165.1ZM173.954 21.3039V14.9903H165.1V21.3039H173.954ZM165.1 22.8996V29.6296H173.954V22.8996H165.1Z" fill="white"/>
<path d="M141.048 63.3579C134.391 66.124 127.2 68.0166 115.685 70.2731C115.345 72.1657 114.956 72.9664 114.276 72.9664C113.547 72.9664 113.256 71.5833 111.895 62.63C113.985 62.7756 116.025 62.8484 118.114 62.8484C120.835 54.7685 123.119 46.2519 124.431 39.4822C125.16 35.9155 125.597 32.7854 125.645 30.5289C131.573 33.1494 132.496 33.7317 132.496 34.8236C132.496 35.7699 132.01 36.2794 130.553 36.8618C128.075 45.7423 124.82 53.9678 120.009 62.8484C123.07 62.8484 126.131 62.63 129.241 62.4844C133.031 62.266 136.821 61.9748 140.562 61.5381C139.299 57.025 137.841 53.3854 135.023 47.6349C134.877 47.3437 135.363 46.7614 135.557 46.9798C143.866 55.4964 147.461 61.6109 147.461 67.2158C147.461 70.4187 146.441 72.384 144.789 72.384C143.283 72.384 143.04 71.8745 141.825 66.4879C141.582 65.3961 141.339 64.3042 141.048 63.3579ZM153.729 37.0073C152.174 37.5897 151.591 38.6815 151.057 42.3211C150.765 44.2865 150.619 44.6505 150.231 44.6505C149.842 44.6505 148.822 43.777 147.607 42.4667C144.4 39.0455 141.679 34.8236 139.687 29.7282C137.987 25.6519 136.626 20.5564 135.217 14.0052C135.071 13.4229 134.877 13.0589 134.488 12.5494C134.245 12.2582 134.148 11.967 134.148 11.6759C134.148 11.2391 135.363 10.3656 135.995 10.3656C136.335 10.3656 136.529 10.584 136.529 10.948C136.529 11.1663 136.238 12.0398 136.238 12.4038C136.238 12.7677 136.286 13.2045 136.383 13.714C136.966 16.4801 139.007 21.3572 141.145 24.9239C144.352 30.2377 148.627 34.1685 153.729 36.2066C153.972 36.2794 153.972 36.9345 153.729 37.0073ZM128.123 14.4419C128.123 15.2427 127.735 15.6066 126.326 16.1162C121.856 29.7282 116.608 38.0264 108.494 44.5049C108.3 44.6505 107.911 43.9225 108.105 43.7042C112.721 37.5897 116.851 29.0731 119.475 20.6292C120.592 16.9897 121.467 13.2773 121.904 9.85608C126.666 12.2582 128.123 13.3501 128.123 14.4419Z" fill="white"/>
<path d="M94.8786 67.3368H74.0571V70.8444C74.0571 73.0557 73.0487 73.8945 71.0321 73.8945C69.4692 73.8945 68.8643 73.2082 68.8643 71.3782C68.8643 65.1255 69.1668 58.7966 69.1668 33.6335C69.1668 25.3984 69.1163 17.1632 68.9147 8.92798C71.6875 10.6055 72.0909 10.9105 74.7629 13.2743H94.2737C96.3911 9.843 96.7944 9.38549 97.1978 9.38549C97.7019 9.38549 98.1052 9.843 100.172 12.4356C101.08 13.6556 101.382 14.1893 101.382 14.7994C101.382 15.5619 101.029 16.0956 99.8698 17.2394V25.9321C99.8698 48.9601 100.172 64.8205 100.172 70.0819C100.172 72.2932 99.0631 73.2082 97.0465 73.2082C95.4332 73.2082 94.8786 72.4457 94.8786 70.6919V67.3368ZM94.8786 65.583V40.4962H74.0571V65.583H94.8786ZM94.8786 38.7424V15.0281H74.0571V38.7424H94.8786Z" fill="white"/>
<path d="M43.8515 32.1492H35.6892C35.4949 37.6833 35.0576 42.1394 34.3288 45.9487C33.0656 52.4172 31.025 57.0889 27.6241 61.545C27.4298 61.7606 26.7981 61.2575 26.9439 60.97C28.7415 56.5858 29.7618 51.8422 30.4906 45.8049C31.1222 40.7739 31.268 35.0959 31.268 28.4837C31.268 21.1527 31.1708 18.9965 30.8793 15.4747C33.4057 16.9122 33.7944 17.1997 36.1265 18.9246C40.4991 17.0559 44.5803 14.181 47.3982 11.378C48.5156 10.228 49.4873 9.14996 50.2647 8C54.2001 11.8092 55.3661 13.2467 55.3661 14.3967C55.3661 15.1154 54.7831 15.7622 52.7425 15.2591C46.8152 18.4215 42.151 20.0746 35.9321 21.0089V22.5182C35.8835 25.3931 35.835 28.0524 35.7864 30.4961H49.6817C52.1109 26.3275 52.694 25.7525 53.0341 25.7525C53.4713 25.7525 54.0058 26.3275 56.3864 29.0586C57.4553 30.3523 57.844 30.9273 57.844 31.4304C57.844 31.9335 57.6982 32.1492 57.2124 32.1492H48.3699V41.5645C48.3699 48.6798 48.5156 57.5201 48.5156 60.4669C48.5156 62.3356 47.5925 63.1981 45.7463 63.1981C44.3859 63.1981 43.7057 62.5512 43.7057 61.0419C43.7057 59.2451 43.8515 53.7109 43.8515 42.5707V32.1492ZM24.3689 41.5645V58.0951C25.4864 60.97 26.7496 62.7668 28.7901 63.9887C31.1708 65.3542 34.6203 65.7855 40.159 65.7855C45.8435 65.7855 50.4105 65.3542 58.6699 63.9887C58.9128 63.9168 58.9128 64.6355 58.7185 64.7793C57.5525 65.6417 57.018 66.648 56.8237 68.8041C56.6779 71.0322 56.5808 71.2478 55.6576 71.3915C53.2284 71.8228 46.9123 72.0384 43.7057 72.0384C35.7864 72.0384 31.025 71.104 27.867 68.2291C25.4864 66.0011 24.0774 62.695 23.0085 57.6639C21.4538 61.6887 20.0934 64.348 17.4212 68.5166C17.567 71.2478 17.2755 71.8228 16.5953 71.8228C15.8665 71.8228 14.8948 69.5229 13 63.0543C14.0689 62.6231 15.2349 61.9762 16.401 61.2575C17.6642 60.395 18.8788 59.3888 19.8505 58.3826V39.6239H16.4981C15.6722 39.6239 14.8948 39.7676 13.8259 40.1989L13.2915 37.324C14.5547 37.8271 15.5264 37.9708 16.4981 37.9708H19.559C21.2595 35.0959 21.6481 34.6647 22.0368 34.6647C22.5227 34.6647 22.9113 35.0959 24.709 37.1802C25.5349 38.2583 25.8264 38.7614 25.8264 39.3364C25.8264 39.8395 25.6807 40.0551 24.3689 41.5645ZM24.1746 19.4996C24.1746 21.9433 23.2029 23.8119 21.5024 23.8119C20.3849 23.8119 19.8019 22.9495 19.1217 19.3559C18.5873 16.6247 17.4698 13.1029 16.0123 10.9468C15.8179 10.6593 16.158 10.228 16.401 10.2999C22.0854 12.3842 24.1746 15.8341 24.1746 19.4996Z" fill="white"/>
<g clip-path="url(#clip0_122_47)">
<path d="M24.7161 78.9126C25.3911 79.0801 26.05 79.3858 26.05 79.8787C26.05 80.618 25.6804 81.2293 24.5875 81.2293C23.5911 81.2293 22.9804 80.4504 22.5786 79.9575C22.1768 79.5041 21.6786 79.0999 20.8107 79.0999C18.2393 79.0999 16.9375 80.8842 16.9375 83.3981C16.9375 86.0598 19.3804 87.4104 21.5821 87.4104C23.5589 87.4104 24.6196 86.9766 25.825 85.9809C25.9857 85.8133 26.1625 85.8331 26.4196 85.9612C26.6929 86.0598 26.725 86.1485 26.6125 86.2668C25.2464 87.6963 23.2696 88.4159 20.5696 88.4159C16.0696 88.4159 13 86.3654 13 83.5065C13 80.6476 16.3429 78.4492 20.65 78.4492C22.6107 78.4492 23.8161 78.676 24.7161 78.9224V78.9126Z" fill="white"/>
<path d="M43.9374 83.4375C43.9374 86.1781 40.8356 88.4159 36.1267 88.4159C31.4178 88.4159 28.3481 86.2668 28.3481 83.4868C28.3481 80.7068 31.5142 78.4492 36.1267 78.4492C40.7392 78.4492 43.9374 80.618 43.9374 83.4474V83.4375ZM32.2535 83.4375C32.2535 86.0007 33.491 87.7949 36.1267 87.7949C38.7624 87.7949 40.0321 85.8528 40.0321 83.4375C40.0321 80.8349 38.7946 79.0604 36.1267 79.0604C33.4589 79.0604 32.2535 80.9828 32.2535 83.4375Z" fill="white"/>
<path d="M46.4286 79.9378C46.0911 79.9575 46.0268 79.9378 45.9947 79.7111C45.9625 79.4646 46.0268 79.4449 46.3643 79.4055C47.7304 79.2182 50.0607 78.8337 51.7 78.5084C51.8929 78.5084 52.0697 78.5872 52.0697 78.676C52.0375 79.2675 52.0054 79.8787 52.0054 80.3913C53.0822 79.1393 54.9786 78.4492 56.7143 78.4492C58.6107 78.4492 60.7161 78.9618 61.4875 80.48C62.725 79.1689 64.3965 78.4492 66.6947 78.4492C67.7232 78.4492 71.4357 78.7745 71.4357 81.3771C71.4357 82.1362 71.4036 83.1615 71.4036 83.6544V85.0641C71.4036 86.2964 71.4036 86.9273 71.6447 87.2329C71.9179 87.5385 72.609 87.5583 73.509 87.6174C73.7018 87.6371 73.7822 87.6568 73.7822 87.8442C73.7822 88.0512 73.75 88.0906 73.509 88.0906C72.3357 88.0906 70.9697 88.0315 69.8447 88.0315C68.7197 88.0315 67.2732 88.0709 65.9715 88.0906C65.6982 88.0906 65.6661 88.0512 65.6661 87.8442C65.6661 87.6371 65.7304 87.6174 65.9715 87.6174C66.9036 87.5583 67.434 87.5583 67.7072 87.2329C67.9804 86.9076 67.9804 86.2471 67.9804 85.0641V82.2742C67.9804 81.6827 68.0125 81.1504 67.6107 80.5096C67.2411 79.8984 66.55 79.4843 65.2804 79.4843C64.0107 79.4843 63.0465 79.997 62.4036 80.6476C61.809 81.2391 61.6965 81.6137 61.6965 82.2447V85.0444C61.6965 86.2767 61.6965 86.9076 61.9375 87.2132C62.1786 87.5188 62.8375 87.5385 63.834 87.5977C64.0268 87.6174 64.075 87.6568 64.075 87.8442C64.075 88.0315 64.0429 88.0709 63.8018 88.0709C62.5322 88.0512 61.1982 88.0117 60.1375 88.0117C58.9322 88.0117 57.5661 88.0512 56.3286 88.0709C56.0554 88.0709 56.0232 88.0315 56.0232 87.8244C56.0232 87.6371 56.0875 87.5977 56.3286 87.5977C57.2286 87.5583 57.759 87.5385 58.0322 87.2132C58.3054 86.8879 58.3054 86.2274 58.3054 85.0444V82.2545C58.3054 81.663 58.3697 81.1307 57.9357 80.4899C57.534 79.859 56.7947 79.4646 55.5732 79.4646C54.3518 79.4646 53.4036 79.9773 52.7607 80.6279C52.1661 81.2391 52.0215 81.6137 52.0215 82.2644V85.0247C52.0215 86.257 51.9893 86.8879 52.2143 87.1935C52.4554 87.5188 53.1465 87.5188 54.0786 87.578C54.2715 87.5977 54.3518 87.6371 54.3518 87.8442C54.3518 88.0315 54.2875 88.0512 54.0786 88.0512C52.9054 88.0315 51.5072 87.992 50.3661 87.992C49.225 87.992 47.859 88.0315 46.6215 88.0512C46.3804 88.0512 46.3161 88.0117 46.3161 87.8244C46.3161 87.6371 46.3804 87.5977 46.6215 87.578C47.5536 87.5188 48.084 87.5188 48.3893 87.1935C48.6947 86.8682 48.6304 86.2077 48.6304 85.0247V81.9982C48.6304 81.2588 48.6304 80.6673 48.3893 80.3026C48.1965 79.9575 47.859 79.8294 47.2161 79.8688L46.4125 79.9082L46.4286 79.9378Z" fill="white"/>
<path d="M77.575 82.1067C77.575 81.3278 77.5429 80.7561 77.4143 80.3716C77.2536 80.0463 76.9161 79.9181 76.1768 79.9575L75.3089 79.997C74.9714 80.0167 74.9071 80.0167 74.875 79.7702C74.8429 79.5238 74.875 79.5041 75.2446 79.4646C76.5464 79.2773 79.0857 78.8534 80.6446 78.5182C80.8857 78.5182 81.0464 78.5971 81.0464 78.7253C80.95 80.2237 80.9179 81.3673 80.9179 82.3531V85.0346C80.9179 86.2668 80.9179 86.8978 81.1589 87.2231C81.4321 87.5287 81.9946 87.5287 83.0554 87.5681C83.2482 87.5878 83.2964 87.647 83.2964 87.8343C83.2964 88.0413 83.2643 88.0808 83.0554 88.0808C81.85 88.061 80.4839 88.0216 79.3589 88.0216C78.2339 88.0216 76.7232 88.061 75.5821 88.0808C75.3089 88.0808 75.2446 88.0413 75.2446 87.8343C75.2446 87.647 75.3089 87.5681 75.55 87.5681C76.5143 87.5287 77.0446 87.509 77.3179 87.2231C77.6554 86.8781 77.5911 86.2175 77.5911 85.0346V82.1067H77.575ZM81.2393 74.1806C81.2393 74.9003 80.0982 75.5706 79.0375 75.5706C77.8643 75.5706 76.7393 74.8904 76.7393 74.1806C76.7393 73.4708 77.8804 72.8103 79.0375 72.8103C80.0982 72.8103 81.2393 73.4609 81.2393 74.1806Z" fill="white"/>
<path d="M85.0483 79.9181C84.7108 79.9378 84.6144 79.9181 84.5822 79.6914C84.5501 79.4647 84.6144 79.4252 84.984 79.3858C86.3501 79.2182 88.7608 78.814 90.2554 78.4887C90.4483 78.4887 90.6572 78.5675 90.6572 78.6563C90.5929 79.2281 90.5929 79.8688 90.5929 80.4012C91.7661 79.1689 93.6304 78.4591 95.7679 78.4591C96.7644 78.4591 100.638 78.7844 100.638 81.387C100.638 82.1461 100.605 83.1714 100.605 83.6643V85.074C100.605 86.3063 100.638 86.9372 100.879 87.2428C101.12 87.5484 101.65 87.5681 102.614 87.6273C102.807 87.647 102.888 87.6864 102.888 87.8738C102.888 88.0611 102.855 88.1005 102.614 88.1005C101.377 88.0808 100.107 88.0413 98.9822 88.0413C97.8572 88.0413 96.4429 88.0808 95.1733 88.1005C94.9322 88.1005 94.9001 88.0611 94.9001 87.8738C94.9001 87.6667 94.9644 87.6273 95.1733 87.6273C96.0733 87.5879 96.6036 87.5681 96.8769 87.2428C97.1501 86.9175 97.1501 86.257 97.1501 85.074V82.2841C97.1501 81.6926 97.2144 81.1603 96.7483 80.5195C96.3144 79.9083 95.6072 79.4942 94.3054 79.4942C93.1001 79.4942 91.9429 80.0069 91.3001 80.6575C90.7054 81.2687 90.5929 81.6433 90.5929 82.294V85.0543C90.5929 86.2866 90.5608 86.9175 90.7858 87.2231C91.059 87.5484 91.5894 87.5484 92.6179 87.6076C92.8429 87.6273 92.9233 87.647 92.9233 87.854C92.9233 88.0611 92.859 88.0808 92.6179 88.0808C91.4447 88.0611 90.1429 88.0216 89.0501 88.0216C87.8447 88.0216 86.4786 88.0611 85.209 88.0808C85.0161 88.0808 84.9679 88.0413 84.9679 87.854C84.9679 87.647 85.0322 87.6273 85.209 87.6076C86.1733 87.5484 86.7036 87.5484 86.9769 87.2231C87.2501 86.8978 87.2179 86.2373 87.2179 85.0543V82.0278C87.2179 81.2687 87.2179 80.6772 86.9769 80.3026C86.784 79.9576 86.5108 79.8491 85.9483 79.8688L85.0483 79.9083V79.9181Z" fill="white"/>
<path d="M113.704 86.5429C119.505 86.5035 120.18 88.1597 120.18 89.2835C120.18 90.9397 118.573 92.9902 111.47 92.9902C107.002 92.9902 104.43 91.827 104.43 90.5158C104.43 89.392 105.571 88.692 108.143 88.1005C106.102 87.7555 105.507 87.2231 105.507 86.5626C105.507 85.7247 106.713 85.1529 109.139 84.5318C106.664 84.1178 104.929 83.3193 104.929 81.6434C104.929 79.9675 107.371 78.4296 111.068 78.4296C112.9 78.4296 113.832 78.676 114.748 78.9225C117.046 78.9225 118.75 78.8436 120.116 78.7549C120.245 78.7549 120.357 78.814 120.357 78.9028L119.891 79.5337C119.827 79.6126 119.763 79.6816 119.618 79.6816C118.413 79.6224 117.48 79.6224 116.114 79.6224C117.079 80.1153 117.657 80.7857 117.657 81.5645C117.657 83.3291 115.616 84.6994 111.486 84.6994C111.084 84.6994 110.682 84.6797 110.345 84.66C109.204 85.074 108.641 85.3796 108.641 85.912C108.641 86.4049 109.413 86.5626 110.65 86.5626L113.72 86.5429H113.704ZM111.566 88.347C110.859 88.347 109.959 88.3076 109.3 88.2681C109.027 88.3864 108.834 88.4751 108.593 88.6329C107.918 89.1652 107.693 89.5596 107.693 90.2299C107.693 91.4819 109.429 92.379 112.161 92.379C115.295 92.379 117.127 91.4129 117.127 90.0426C117.127 89.1849 116.693 88.347 112.884 88.347H111.55H111.566ZM108.496 81.5941C108.496 83.1517 109.557 84.1769 111.325 84.1769C113.093 84.1769 114.089 83.1714 114.089 81.5941C114.089 80.0167 113.013 79.0112 111.325 79.0112C109.493 79.0112 108.496 80.0956 108.496 81.5941Z" fill="white"/>
<path d="M137.297 83.822C134.854 83.1221 133.423 82.639 133.423 80.8744C133.423 79.7308 134.998 78.4197 138.695 78.4197C139.53 78.4197 140.495 78.538 141.105 78.6267C141.78 78.7056 142.439 78.7056 143.307 78.6464C143.372 79.3661 143.468 80.342 143.613 81.0223C143.613 81.1406 143.548 81.1899 143.243 81.2096C142.905 81.249 142.841 81.1701 142.745 81.0617C141.845 79.9379 140.447 78.9915 138.839 78.9915C136.975 78.9915 136.236 79.6027 136.236 80.4406C136.236 81.0124 136.975 81.4462 138.743 81.8898L139.916 82.1954C142.825 82.9742 144.48 83.5854 144.48 85.4092C144.48 86.8189 142.745 88.3765 138.614 88.3765C136.75 88.3765 135.239 88.1498 133.873 87.8048C133.568 87.1738 133.279 86.2274 133.134 85.5768C133.134 85.4289 133.166 85.4092 133.472 85.3895C133.809 85.3698 133.841 85.3698 133.938 85.5078C135.03 86.8386 136.879 87.7752 138.614 87.7752C140.575 87.7752 141.523 87.0161 141.523 85.9514C141.523 85.074 140.382 84.6994 138.454 84.1276L137.313 83.8023L137.297 83.822Z" fill="white"/>
<path d="M162.77 83.4375C162.77 86.1781 159.668 88.4159 154.959 88.4159C150.25 88.4159 147.18 86.2668 147.18 83.4868C147.18 80.7068 150.346 78.4492 154.959 78.4492C159.571 78.4492 162.77 80.618 162.77 83.4474V83.4375ZM151.086 83.4375C151.086 86.0007 152.323 87.7949 154.959 87.7949C157.595 87.7949 158.864 85.8528 158.864 83.4375C158.864 80.8349 157.627 79.0604 154.959 79.0604C152.291 79.0604 151.086 80.9828 151.086 83.4375Z" fill="white"/>
<path d="M181.075 83.4375C181.075 86.1781 177.973 88.4159 173.264 88.4159C168.555 88.4159 165.486 86.2668 165.486 83.4868C165.486 80.7068 168.652 78.4492 173.264 78.4492C177.877 78.4492 181.075 80.618 181.075 83.4474V83.4375ZM169.407 83.4375C169.407 86.0007 170.645 87.7949 173.28 87.7949C175.916 87.7949 177.186 85.8528 177.186 83.4375C177.186 80.8349 175.948 79.0604 173.28 79.0604C170.613 79.0604 169.407 80.9828 169.407 83.4375Z" fill="white"/>
<path d="M183.614 79.9181C183.277 79.9378 183.181 79.9181 183.148 79.6914C183.116 79.4647 183.181 79.4252 183.55 79.3858C184.916 79.2182 187.327 78.814 188.822 78.4887C189.014 78.4887 189.223 78.5675 189.223 78.6563C189.159 79.2281 189.159 79.8688 189.159 80.4012C190.332 79.1689 192.197 78.4591 194.334 78.4591C195.331 78.4591 199.204 78.7844 199.204 81.387C199.204 82.1461 199.172 83.1714 199.172 83.6643V85.074C199.172 86.3063 199.204 86.9372 199.445 87.2428C199.686 87.5484 200.216 87.5681 201.181 87.6273C201.373 87.647 201.454 87.6864 201.454 87.8738C201.454 88.0611 201.422 88.1005 201.181 88.1005C199.943 88.0808 198.673 88.0413 197.548 88.0413C196.423 88.0413 195.009 88.0808 193.739 88.1005C193.498 88.1005 193.466 88.0611 193.466 87.8738C193.466 87.6667 193.531 87.6273 193.739 87.6273C194.639 87.5879 195.17 87.5681 195.443 87.2428C195.716 86.9175 195.716 86.257 195.716 85.074V82.2841C195.716 81.6926 195.781 81.1603 195.314 80.5195C194.881 79.9083 194.173 79.4942 192.872 79.4942C191.666 79.4942 190.509 80.0069 189.866 80.6575C189.272 81.2687 189.159 81.6433 189.159 82.294V85.0543C189.159 86.2866 189.127 86.9175 189.352 87.2231C189.625 87.5484 190.156 87.5484 191.184 87.6076C191.409 87.6273 191.489 87.647 191.489 87.854C191.489 88.0611 191.425 88.0808 191.184 88.0808C190.011 88.0611 188.709 88.0216 187.616 88.0216C186.411 88.0216 185.045 88.0611 183.775 88.0808C183.582 88.0808 183.534 88.0413 183.534 87.854C183.534 87.647 183.598 87.6273 183.775 87.6076C184.739 87.5484 185.27 87.5484 185.543 87.2231C185.816 86.8978 185.784 86.2373 185.784 85.0543V82.0278C185.784 81.2687 185.784 80.6772 185.543 80.3026C185.35 79.9576 185.077 79.8491 184.514 79.8688L183.614 79.9083V79.9181Z" fill="white"/>
</g>
<rect x="1" y="1" width="212" height="95" stroke="white" stroke-width="2"/>
<defs>
<clipPath id="clip0_122_47">
<rect width="188.438" height="20.1897" fill="white" transform="translate(13 72.8103)"/>
</clipPath>
</defs>
</svg>
