<svg width="190" height="90" viewBox="0 0 190 90" fill="none" xmlns="http://www.w3.org/2000/svg">
<path d="M171.123 45.3141H166.008C165.171 56.0174 162.521 60.7044 156.57 64.6919C156.337 64.8319 156.058 64.4121 156.244 64.1323C160.057 58.3959 161.498 54.1286 161.963 45.3141H159.546C158.43 45.3141 157.314 45.454 155.826 45.7339L155.314 43.1455C156.942 43.5652 158.197 43.7051 159.406 43.7051H162.056C162.103 41.6764 162.149 39.5078 162.149 36.9894V33.9113H160.522C159.592 33.9113 158.662 34.0512 157.407 34.331L156.895 31.7427C158.29 32.1624 159.313 32.3023 160.382 32.3023H175.354C177.121 29.1543 177.679 28.5946 178.004 28.5946C178.423 28.5946 178.934 29.1543 180.561 31.183C181.259 32.0924 181.631 32.7221 181.631 33.2117C181.631 33.7014 181.491 33.9113 181.026 33.9113H175.121V43.7051H176.284C178.33 40.0674 178.888 39.5078 179.213 39.5078C179.631 39.5078 180.096 40.0674 181.91 42.4459C182.654 43.4953 183.026 44.1249 183.026 44.6146C183.026 45.1043 182.886 45.3141 182.421 45.3141H175.121C175.168 51.6801 175.307 59.0255 175.307 61.474C175.307 63.3628 174.378 64.1323 172.843 64.1323C171.541 64.1323 170.937 63.5726 170.937 61.9637C170.937 60.6345 171.123 56.3672 171.123 48.1823V45.3141ZM166.101 43.7051H171.123V33.9113H166.334C166.334 37.1992 166.287 40.4172 166.101 43.7051ZM174.982 23.4179V24.3273C174.982 26.0762 174.192 26.8457 172.611 26.8457C171.355 26.8457 170.797 26.2861 170.797 24.7471C170.797 22.2986 170.89 19.7802 170.89 9.77648C170.89 7.18811 170.844 4.52979 170.704 1.87146C172.983 3.27058 173.308 3.62036 175.447 5.43922H184.002C185.629 2.71093 186.001 2.29119 186.373 2.29119C186.838 2.29119 187.21 2.71093 188.93 4.80961C189.721 5.85895 190 6.34864 190 6.90829C190 7.60785 189.721 8.02759 188.744 8.93702V17.3317C188.744 56.5071 188.791 58.3259 188.791 60.2148C188.791 62.4533 188.326 64.0623 187.35 65.1117C186.513 66.0211 185.304 66.4408 183.77 66.4408C182.886 66.4408 182.84 66.3009 182.654 64.8318C182.375 62.3834 181.398 60.9843 178.237 59.7251C178.004 59.6551 178.004 58.8856 178.237 58.8856C180.887 59.1654 181.956 59.2354 183.863 59.2354C184.327 59.2354 184.42 59.0255 184.42 58.256V23.4179H174.982ZM184.42 13.4142V7.0482H174.982V13.4142H184.42ZM174.982 15.0232V21.8089H184.42V15.0232H174.982ZM153.362 23.4179V63.7126C153.362 65.6014 152.478 66.4408 150.758 66.4408C149.41 66.4408 148.852 65.8112 148.852 63.9924C148.852 59.6551 149.131 53.6389 149.131 32.9319C149.131 22.5784 149.084 12.2249 148.805 1.87146C151.223 3.27058 151.548 3.5504 153.734 5.43922H161.87C163.451 2.71093 163.823 2.29119 164.195 2.29119C164.66 2.29119 165.032 2.71093 166.706 4.73966C167.45 5.64908 167.729 6.13877 167.729 6.69842C167.729 7.32803 167.403 7.81772 166.38 8.7971V11.3855C166.38 18.1712 166.473 22.9282 166.473 24.4672C166.473 26.0762 165.59 26.7758 163.963 26.7758C162.754 26.7758 162.289 26.2161 162.289 24.7471V23.4179H153.362ZM162.289 13.4142V7.0482H153.362V13.4142H162.289ZM153.362 15.0232V21.8089H162.289V15.0232H153.362Z" fill="#E72410"/>
<path d="M129.109 55.8169C122.398 58.6059 115.147 60.5142 103.537 62.7894C103.194 64.6977 102.802 65.505 102.116 65.505C101.381 65.505 101.087 64.1105 99.7153 55.0829C101.822 55.2297 103.88 55.3031 105.986 55.3031C108.73 47.1563 111.032 38.569 112.355 31.7433C113.09 28.1469 113.531 24.9909 113.58 22.7157C119.556 25.3579 120.487 25.9451 120.487 27.046C120.487 28.0001 119.997 28.5139 118.528 29.1011C116.029 38.0553 112.747 46.3489 107.897 55.3031C110.983 55.3031 114.069 55.0829 117.205 54.9361C121.026 54.716 124.847 54.4224 128.62 53.982C127.346 49.4315 125.876 45.7618 123.035 39.9635C122.888 39.67 123.378 39.0828 123.574 39.303C131.951 47.8902 135.576 54.0554 135.576 59.7068C135.576 62.9362 134.547 64.9179 132.882 64.9179C131.363 64.9179 131.118 64.4041 129.893 58.9729C129.648 57.872 129.403 56.771 129.109 55.8169ZM141.896 29.2478C140.328 29.835 139.74 30.9359 139.201 34.6057C138.908 36.5874 138.761 36.9543 138.369 36.9543C137.977 36.9543 136.948 36.0736 135.723 34.7525C132.49 31.3029 129.746 27.046 127.738 21.9083C126.023 17.7982 124.651 12.6605 123.231 6.05499C123.084 5.46782 122.888 5.10085 122.496 4.58708C122.251 4.2935 122.153 3.99992 122.153 3.70634C122.153 3.26597 123.378 2.38523 124.014 2.38523C124.357 2.38523 124.553 2.60541 124.553 2.97239C124.553 3.19257 124.259 4.07332 124.259 4.44029C124.259 4.80727 124.308 5.24764 124.406 5.7614C124.994 8.55042 127.052 13.4679 129.207 17.0643C132.441 22.4221 136.752 26.3854 141.896 28.4405C142.141 28.5139 142.141 29.1745 141.896 29.2478ZM116.078 6.49535C116.078 7.3027 115.686 7.66968 114.265 8.18344C109.758 21.9083 104.467 30.2754 96.286 36.8075C96.0901 36.9543 95.6981 36.2204 95.8941 36.0002C100.548 29.835 104.712 21.2478 107.358 12.7339C108.485 9.06419 109.366 5.32103 109.807 1.87146C114.608 4.2935 116.078 5.39443 116.078 6.49535Z" fill="#E72410"/>
<path d="M82.5574 59.8287H61.5631V63.3654C61.5631 65.595 60.5465 66.4407 58.5131 66.4407C56.9373 66.4407 56.3273 65.7488 56.3273 63.9035C56.3273 57.5991 56.6323 51.2177 56.6323 25.846C56.6323 17.5425 56.5814 9.23902 56.3781 0.935547C59.1739 2.627 59.5806 2.93453 62.2748 5.31793H81.9474C84.0824 1.85816 84.489 1.39685 84.8957 1.39685C85.404 1.39685 85.8107 1.85816 87.8949 4.47221C88.8099 5.70235 89.1149 6.24054 89.1149 6.85562C89.1149 7.62445 88.759 8.16264 87.5899 9.3159V18.0807C87.5899 41.2996 87.8949 57.2915 87.8949 62.5965C87.8949 64.8261 86.7765 65.7488 84.7432 65.7488C83.1165 65.7488 82.5574 64.9799 82.5574 63.2116V59.8287ZM82.5574 58.0604V32.7655H61.5631V58.0604H82.5574ZM82.5574 30.9972V7.08626H61.5631V30.9972H82.5574Z" fill="#E72410"/>
<path d="M31.1073 24.3494H22.8773C22.6814 29.9295 22.2405 34.4225 21.5057 38.2633C20.232 44.7855 18.1745 49.4959 14.7453 53.989C14.5494 54.2064 13.9126 53.6991 14.0595 53.4092C15.8721 48.9887 16.9008 44.2057 17.6356 38.1184C18.2725 33.0456 18.4194 27.3206 18.4194 20.6535C18.4194 13.2617 18.3215 11.0877 18.0275 7.53672C20.5749 8.98609 20.9668 9.27596 23.3182 11.0152C27.7271 9.13102 31.8421 6.23229 34.6834 3.40602C35.8101 2.24652 36.7899 1.15949 37.5737 0C41.5417 3.84082 42.7174 5.2902 42.7174 6.44969C42.7174 7.17437 42.1296 7.82659 40.0721 7.31931C34.0956 10.5079 29.3927 12.1747 23.1223 13.1168V14.6386C23.0733 17.5374 23.0243 20.2187 22.9753 22.6826H36.9858C39.4352 18.4794 40.0231 17.8997 40.366 17.8997C40.8069 17.8997 41.3458 18.4794 43.7462 21.2332C44.8239 22.5377 45.2158 23.1174 45.2158 23.6247C45.2158 24.132 45.0688 24.3494 44.579 24.3494H35.6632V33.8428C35.6632 41.0171 35.8101 49.9307 35.8101 52.902C35.8101 54.7861 34.8794 55.6558 33.0178 55.6558C31.6462 55.6558 30.9603 55.0035 30.9603 53.4817C30.9603 51.67 31.1073 46.0899 31.1073 34.8573V24.3494ZM11.4632 33.8428V50.5105C12.5899 53.4092 13.8636 55.2209 15.9211 56.4529C18.3215 57.8298 21.7996 58.2646 27.3842 58.2646C33.1158 58.2646 37.7207 57.8298 46.0486 56.4529C46.2935 56.3804 46.2935 57.1051 46.0976 57.2501C44.9219 58.1197 44.383 59.1342 44.1871 61.3083C44.0401 63.5548 43.9421 63.7722 43.0114 63.9172C40.562 64.352 34.1935 64.5694 30.9603 64.5694C22.9753 64.5694 18.1745 63.6273 14.9903 60.7285C12.5899 58.482 11.1692 55.1485 10.0915 50.0757C8.52389 54.1339 7.15223 56.8152 4.4579 61.0184C4.60486 63.7722 4.31093 64.352 3.6251 64.352C2.89028 64.352 1.91053 62.033 0 55.5108C1.07773 55.076 2.25344 54.4238 3.42915 53.6991C4.70284 52.8295 5.92753 51.8149 6.90729 50.8004V31.8861H3.52713C2.69433 31.8861 1.91053 32.031 0.832794 32.4659L0.293927 29.5671C1.56761 30.0744 2.54737 30.2193 3.52713 30.2193H6.61336C8.32794 27.3206 8.71984 26.8858 9.11174 26.8858C9.60162 26.8858 9.99353 27.3206 11.8061 29.4222C12.6389 30.5092 12.9328 31.0165 12.9328 31.5962C12.9328 32.1035 12.7858 32.3209 11.4632 33.8428ZM11.2672 11.595C11.2672 14.0589 10.2875 15.9431 8.57288 15.9431C7.44616 15.9431 6.8583 15.0734 6.17247 11.45C5.63361 8.69621 4.50688 5.14526 3.03725 2.97121C2.8413 2.68133 3.18421 2.24652 3.42915 2.31899C9.16073 4.42057 11.2672 7.89906 11.2672 11.595Z" fill="#E72410"/>
<g clip-path="url(#clip0_66_470)">
<path d="M11.8132 75.5337C12.4938 75.7027 13.1582 76.0108 13.1582 76.5078C13.1582 77.2533 12.7855 77.8696 11.6836 77.8696C10.6789 77.8696 10.0631 77.0844 9.658 76.5874C9.25288 76.1301 8.75053 75.7226 7.87548 75.7226C5.28273 75.7226 3.97015 77.5217 3.97015 80.0564C3.97015 82.7402 6.43326 84.102 8.6533 84.102C10.6465 84.102 11.716 83.6646 12.9313 82.6607C13.0934 82.4917 13.2716 82.5116 13.5309 82.6408C13.8064 82.7402 13.8388 82.8297 13.7254 82.949C12.348 84.3903 10.3548 85.1159 7.63241 85.1159C3.0951 85.1159 0 83.0484 0 80.1658C0 77.2832 3.37058 75.0665 7.71343 75.0665C9.69041 75.0665 10.9058 75.2951 11.8132 75.5436V75.5337Z" fill="#E72410"/>
<path d="M31.194 80.0962C31.194 82.8595 28.0665 85.1159 23.3185 85.1159C18.5706 85.1159 15.4755 82.949 15.4755 80.1459C15.4755 77.3428 18.6678 75.0665 23.3185 75.0665C27.9693 75.0665 31.194 77.2533 31.194 80.1061V80.0962ZM19.4132 80.0962C19.4132 82.6806 20.661 84.4897 23.3185 84.4897C25.9761 84.4897 27.2563 82.5315 27.2563 80.0962C27.2563 77.472 26.0085 75.6828 23.3185 75.6828C20.6286 75.6828 19.4132 77.6211 19.4132 80.0962Z" fill="#E72410"/>
<path d="M33.7058 76.5675C33.3655 76.5874 33.3007 76.5675 33.2683 76.3389C33.2359 76.0903 33.3007 76.0705 33.641 76.0307C35.0184 75.8418 37.3681 75.4542 39.021 75.1262C39.2154 75.1262 39.3937 75.2057 39.3937 75.2951C39.3612 75.8915 39.3288 76.5078 39.3288 77.0247C40.4146 75.7623 42.3267 75.0665 44.0768 75.0665C45.989 75.0665 48.1118 75.5834 48.8896 77.1142C50.1374 75.7921 51.8227 75.0665 54.1399 75.0665C55.177 75.0665 58.9203 75.3945 58.9203 78.0187C58.9203 78.7841 58.8879 79.8179 58.8879 80.3149V81.7363C58.8879 82.9788 58.8879 83.6149 59.131 83.9231C59.4065 84.2312 60.1033 84.2511 61.0107 84.3107C61.2052 84.3306 61.2862 84.3505 61.2862 84.5394C61.2862 84.7481 61.2538 84.7879 61.0107 84.7879C59.8278 84.7879 58.4504 84.7282 57.316 84.7282C56.1817 84.7282 54.7233 84.768 53.4107 84.7879C53.1352 84.7879 53.1028 84.7481 53.1028 84.5394C53.1028 84.3306 53.1676 84.3107 53.4107 84.3107C54.3506 84.2511 54.8853 84.2511 55.1608 83.9231C55.4363 83.5951 55.4363 82.9291 55.4363 81.7363V78.9233C55.4363 78.3269 55.4687 77.7901 55.0636 77.144C54.6909 76.5277 53.9941 76.1102 52.7139 76.1102C51.4337 76.1102 50.4615 76.6271 49.8133 77.2832C49.2137 77.8796 49.1003 78.2573 49.1003 78.8934V81.7164C49.1003 82.9589 49.1003 83.5951 49.3433 83.9032C49.5864 84.2113 50.2508 84.2312 51.2555 84.2909C51.4499 84.3107 51.4986 84.3505 51.4986 84.5394C51.4986 84.7282 51.4662 84.768 51.2231 84.768C49.9429 84.7481 48.5979 84.7083 47.5284 84.7083C46.3131 84.7083 44.9357 84.7481 43.6879 84.768C43.4124 84.768 43.38 84.7282 43.38 84.5195C43.38 84.3306 43.4448 84.2909 43.6879 84.2909C44.5954 84.2511 45.1301 84.2312 45.4056 83.9032C45.6811 83.5752 45.6811 82.9092 45.6811 81.7164V78.9034C45.6811 78.307 45.7459 77.7702 45.3084 77.1241C44.9033 76.488 44.1578 76.0903 42.9263 76.0903C41.6947 76.0903 40.7386 76.6072 40.0905 77.2633C39.4909 77.8796 39.345 78.2573 39.345 78.9133V81.6965C39.345 82.939 39.3126 83.5752 39.5395 83.8833C39.7826 84.2113 40.4794 84.2113 41.4192 84.271C41.6137 84.2909 41.6947 84.3306 41.6947 84.5394C41.6947 84.7282 41.6299 84.7481 41.4192 84.7481C40.2363 84.7282 38.8265 84.6885 37.676 84.6885C36.5254 84.6885 35.148 84.7282 33.9003 84.7481C33.6572 84.7481 33.5924 84.7083 33.5924 84.5195C33.5924 84.3306 33.6572 84.2909 33.9003 84.271C34.8401 84.2113 35.3749 84.2113 35.6828 83.8833C35.9907 83.5553 35.9259 82.8893 35.9259 81.6965V78.6449C35.9259 77.8994 35.9259 77.303 35.6828 76.9353C35.4883 76.5874 35.148 76.4581 34.4998 76.4979L33.6896 76.5377L33.7058 76.5675Z" fill="#E72410"/>
<path d="M65.1104 78.7543C65.1104 77.969 65.078 77.3925 64.9484 77.0048C64.7863 76.6768 64.446 76.5476 63.7006 76.5874L62.8255 76.6271C62.4852 76.647 62.4204 76.647 62.388 76.3985C62.3556 76.15 62.388 76.1301 62.7607 76.0904C64.0733 75.9015 66.6336 75.4741 68.2055 75.1361C68.4486 75.1361 68.6106 75.2156 68.6106 75.3449C68.5134 76.8557 68.481 78.0088 68.481 79.0028V81.7065C68.481 82.949 68.481 83.5851 68.724 83.9132C68.9995 84.2213 69.5667 84.2213 70.6362 84.2611C70.8307 84.2809 70.8793 84.3406 70.8793 84.5294C70.8793 84.7382 70.8469 84.7779 70.6362 84.7779C69.4208 84.7581 68.0435 84.7183 66.9091 84.7183C65.7748 84.7183 64.2515 84.7581 63.101 84.7779C62.8255 84.7779 62.7607 84.7382 62.7607 84.5294C62.7607 84.3406 62.8255 84.2611 63.0686 84.2611C64.0409 84.2213 64.5756 84.2014 64.8511 83.9132C65.1914 83.5653 65.1266 82.8993 65.1266 81.7065V78.7543H65.1104ZM68.8051 70.7625C68.8051 71.4881 67.6545 72.1641 66.585 72.1641C65.4021 72.1641 64.2678 71.4782 64.2678 70.7625C64.2678 70.0468 65.4183 69.3809 66.585 69.3809C67.6545 69.3809 68.8051 70.0369 68.8051 70.7625Z" fill="#E72410"/>
<path d="M72.6456 76.5477C72.3053 76.5675 72.2081 76.5477 72.1757 76.319C72.1432 76.0904 72.2081 76.0507 72.5808 76.0109C73.9582 75.8419 76.3889 75.4344 77.8959 75.1064C78.0904 75.1064 78.301 75.1859 78.301 75.2753C78.2362 75.8519 78.2362 76.498 78.2362 77.0347C79.4192 75.7922 81.2989 75.0765 83.4541 75.0765C84.4588 75.0765 88.3641 75.4046 88.3641 78.0287C88.3641 78.7941 88.3317 79.8279 88.3317 80.3249V81.7463C88.3317 82.9888 88.3641 83.6249 88.6072 83.9331C88.8503 84.2412 89.385 84.2611 90.3573 84.3207C90.5518 84.3406 90.6328 84.3804 90.6328 84.5692C90.6328 84.7581 90.6004 84.7979 90.3573 84.7979C89.1096 84.778 87.8294 84.7382 86.6951 84.7382C85.5607 84.7382 84.1347 84.778 82.8545 84.7979C82.6115 84.7979 82.5791 84.7581 82.5791 84.5692C82.5791 84.3605 82.6439 84.3207 82.8545 84.3207C83.762 84.281 84.2968 84.2611 84.5722 83.9331C84.8477 83.6051 84.8477 82.9391 84.8477 81.7463V78.9333C84.8477 78.3369 84.9125 77.8001 84.4426 77.154C84.0051 76.5377 83.2921 76.1202 81.9795 76.1202C80.7641 76.1202 79.5974 76.6371 78.9492 77.2932C78.3496 77.9094 78.2362 78.2872 78.2362 78.9432V81.7264C78.2362 82.9689 78.2038 83.6051 78.4307 83.9132C78.7061 84.2412 79.2409 84.2412 80.278 84.3009C80.5049 84.3208 80.5859 84.3406 80.5859 84.5494C80.5859 84.7581 80.5211 84.778 80.278 84.778C79.0951 84.7581 77.7825 84.7184 76.6806 84.7184C75.4652 84.7184 74.0878 84.7581 72.8076 84.778C72.6132 84.778 72.5646 84.7382 72.5646 84.5494C72.5646 84.3406 72.6294 84.3208 72.8076 84.3009C73.7799 84.2412 74.3147 84.2412 74.5902 83.9132C74.8656 83.5852 74.8332 82.9192 74.8332 81.7264V78.6748C74.8332 77.9094 74.8332 77.313 74.5902 76.9353C74.3957 76.5874 74.1202 76.4781 73.5531 76.498L72.6456 76.5377V76.5477Z" fill="#E72410"/>
<path d="M101.539 83.2273C107.388 83.1875 108.069 84.8574 108.069 85.9906C108.069 87.6605 106.449 89.728 99.2861 89.728C94.7812 89.728 92.1885 88.5551 92.1885 87.2331C92.1885 86.0999 93.339 85.3942 95.9318 84.7978C93.8738 84.4499 93.2742 83.9131 93.2742 83.2471C93.2742 82.4022 94.4895 81.8257 96.9365 81.1995C94.4409 80.782 92.6908 79.9769 92.6908 78.2871C92.6908 76.5973 95.1539 75.0466 98.881 75.0466C100.728 75.0466 101.668 75.2951 102.592 75.5436C104.909 75.5436 106.627 75.4641 108.004 75.3747C108.134 75.3747 108.247 75.4343 108.247 75.5238L107.777 76.1599C107.713 76.2394 107.648 76.309 107.502 76.309C106.287 76.2494 105.347 76.2494 103.969 76.2494C104.942 76.7464 105.525 77.4223 105.525 78.2076C105.525 79.9868 103.467 81.3685 99.3023 81.3685C98.8972 81.3685 98.4921 81.3486 98.1518 81.3287C97.0013 81.7462 96.4341 82.0543 96.4341 82.5911C96.4341 83.0881 97.2119 83.2471 98.4597 83.2471L101.555 83.2273H101.539ZM99.3834 85.0463C98.6704 85.0463 97.7629 85.0065 97.0985 84.9668C96.823 85.086 96.6286 85.1755 96.3855 85.3345C95.7049 85.8713 95.478 86.2689 95.478 86.9448C95.478 88.2072 97.2281 89.1117 99.9829 89.1117C103.143 89.1117 104.99 88.1376 104.99 86.756C104.99 85.8912 104.553 85.0463 100.712 85.0463H99.3672H99.3834ZM96.2883 78.2374C96.2883 79.8079 97.3578 80.8417 99.1403 80.8417C100.923 80.8417 101.927 79.8278 101.927 78.2374C101.927 76.647 100.842 75.6331 99.1403 75.6331C97.293 75.6331 96.2883 76.7265 96.2883 78.2374Z" fill="#E72410"/>
<path d="M125.327 80.4839C122.864 79.7781 121.422 79.2911 121.422 77.5118C121.422 76.3588 123.01 75.0367 126.737 75.0367C127.58 75.0367 128.552 75.156 129.168 75.2455C129.848 75.325 130.513 75.325 131.388 75.2654C131.453 75.991 131.55 76.975 131.696 77.6609C131.696 77.7802 131.631 77.8299 131.323 77.8498C130.983 77.8895 130.918 77.81 130.821 77.7007C129.913 76.5675 128.503 75.6133 126.883 75.6133C125.003 75.6133 124.258 76.2295 124.258 77.0744C124.258 77.651 125.003 78.0883 126.786 78.5356L127.969 78.8438C130.902 79.629 132.571 80.2453 132.571 82.0842C132.571 83.5056 130.821 85.0762 126.656 85.0762C124.776 85.0762 123.253 84.8475 121.876 84.4996C121.568 83.8635 121.276 82.9092 121.13 82.2532C121.13 82.1041 121.163 82.0842 121.47 82.0643C121.811 82.0445 121.843 82.0445 121.94 82.1836C123.042 83.5255 124.906 84.4698 126.656 84.4698C128.633 84.4698 129.589 83.7044 129.589 82.6309C129.589 81.7463 128.438 81.3685 126.494 80.792L125.343 80.464L125.327 80.4839Z" fill="#E72410"/>
<path d="M151.012 80.0962C151.012 82.8595 147.884 85.1159 143.136 85.1159C138.388 85.1159 135.293 82.949 135.293 80.1459C135.293 77.3428 138.485 75.0665 143.136 75.0665C147.787 75.0665 151.012 77.2533 151.012 80.1061V80.0962ZM139.231 80.0962C139.231 82.6806 140.478 84.4897 143.136 84.4897C145.794 84.4897 147.074 82.5315 147.074 80.0962C147.074 77.472 145.826 75.6828 143.136 75.6828C140.446 75.6828 139.231 77.6211 139.231 80.0962Z" fill="#E72410"/>
<path d="M169.469 80.0962C169.469 82.8595 166.341 85.1159 161.593 85.1159C156.845 85.1159 153.75 82.949 153.75 80.1459C153.75 77.3428 156.942 75.0665 161.593 75.0665C166.244 75.0665 169.469 77.2533 169.469 80.1061V80.0962ZM157.704 80.0962C157.704 82.6806 158.952 84.4897 161.609 84.4897C164.267 84.4897 165.547 82.5315 165.547 80.0962C165.547 77.472 164.299 75.6828 161.609 75.6828C158.919 75.6828 157.704 77.6211 157.704 80.0962Z" fill="#E72410"/>
<path d="M172.029 76.5477C171.689 76.5675 171.591 76.5477 171.559 76.319C171.527 76.0904 171.591 76.0507 171.964 76.0109C173.342 75.8419 175.772 75.4344 177.279 75.1064C177.474 75.1064 177.684 75.1859 177.684 75.2753C177.62 75.8519 177.62 76.498 177.62 77.0347C178.803 75.7922 180.682 75.0765 182.838 75.0765C183.842 75.0765 187.748 75.4046 187.748 78.0287C187.748 78.7941 187.715 79.8279 187.715 80.3249V81.7463C187.715 82.9888 187.748 83.6249 187.991 83.9331C188.234 84.2412 188.768 84.2611 189.741 84.3207C189.935 84.3406 190.016 84.3804 190.016 84.5692C190.016 84.7581 189.984 84.7979 189.741 84.7979C188.493 84.778 187.213 84.7382 186.078 84.7382C184.944 84.7382 183.518 84.778 182.238 84.7979C181.995 84.7979 181.962 84.7581 181.962 84.5692C181.962 84.3605 182.027 84.3207 182.238 84.3207C183.145 84.281 183.68 84.2611 183.956 83.9331C184.231 83.6051 184.231 82.9391 184.231 81.7463V78.9333C184.231 78.3369 184.296 77.8001 183.826 77.154C183.389 76.5377 182.675 76.1202 181.363 76.1202C180.148 76.1202 178.981 76.6371 178.333 77.2932C177.733 77.9094 177.62 78.2872 177.62 78.9432V81.7264C177.62 82.9689 177.587 83.6051 177.814 83.9132C178.09 84.2412 178.624 84.2412 179.661 84.3009C179.888 84.3208 179.969 84.3406 179.969 84.5494C179.969 84.7581 179.904 84.778 179.661 84.778C178.478 84.7581 177.166 84.7184 176.064 84.7184C174.849 84.7184 173.471 84.7581 172.191 84.778C171.997 84.778 171.948 84.7382 171.948 84.5494C171.948 84.3406 172.013 84.3208 172.191 84.3009C173.163 84.2412 173.698 84.2412 173.974 83.9132C174.249 83.5852 174.217 82.9192 174.217 81.7264V78.6748C174.217 77.9094 174.217 77.313 173.974 76.9353C173.779 76.5874 173.504 76.4781 172.936 76.498L172.029 76.5377V76.5477Z" fill="#E72410"/>
</g>
<defs>
<clipPath id="clip0_66_470">
<rect width="190" height="20.3571" fill="white" transform="translate(0 69.3809)"/>
</clipPath>
</defs>
</svg>
