<svg width="190" height="46" viewBox="0 0 190 46" fill="none" xmlns="http://www.w3.org/2000/svg">
<path d="M40.9946 10.6383H34.5741V11.2432C34.5741 11.6246 34.2632 11.7693 33.6414 11.7693C33.1595 11.7693 32.9729 11.6509 32.9729 11.3353C32.9729 10.257 33.0662 9.16552 33.0662 4.82596C33.0662 3.40574 33.0506 1.98553 32.9884 0.565308C33.8435 0.854612 33.9678 0.907212 34.7918 1.31487H40.808C41.461 0.72311 41.5853 0.644208 41.7097 0.644208C41.8652 0.644208 41.9895 0.72311 42.6269 1.17022C42.9067 1.38062 43 1.47267 43 1.57787C43 1.70937 42.8912 1.80142 42.5336 1.99868V3.4978C42.5336 7.46915 42.6269 10.2044 42.6269 11.1117C42.6269 11.4931 42.2849 11.6509 41.6631 11.6509C41.1656 11.6509 40.9946 11.5194 40.9946 11.2169V10.6383ZM40.9946 10.3359V6.00948H34.5741V10.3359H40.9946ZM40.9946 5.70703V1.61732H34.5741V5.70703H40.9946Z" fill="#E72410"/>
<path d="M21.4533 5.50979H23.7697C23.9251 5.18104 24.065 4.87858 24.1583 4.61558C24.2982 4.26052 24.3915 3.95807 24.4537 3.65562C25.9616 4.11587 26.1016 4.18162 26.1016 4.32627C26.1016 4.48408 25.9616 4.54983 25.573 4.56298C24.8423 5.15474 24.6558 5.29939 24.3138 5.50979H26.8011C27.3297 4.86543 27.5162 4.76023 27.6251 4.76023C27.765 4.76023 27.936 4.86543 28.5267 5.28624C28.791 5.47034 28.9154 5.58869 28.9154 5.68074C28.9154 5.77279 28.8687 5.81224 28.7133 5.81224H24.9978V7.31136H26.3814C26.8789 6.69331 27.0654 6.5881 27.1742 6.5881C27.3141 6.5881 27.4696 6.69331 28.0448 7.10096C28.278 7.27191 28.4024 7.39026 28.4024 7.48232C28.4024 7.57437 28.3557 7.61382 28.2003 7.61382H24.9978V9.11294H26.4125C26.9099 8.49488 27.0965 8.38968 27.2053 8.38968C27.3452 8.38968 27.5007 8.49488 28.0759 8.90253C28.3091 9.07349 28.4334 9.19184 28.4334 9.28389C28.4334 9.37594 28.3868 9.41539 28.2313 9.41539H24.9978V11.0855H26.8633C27.4696 10.3491 27.6561 10.2439 27.765 10.2439C27.9049 10.2439 28.0759 10.3491 28.7599 10.8356C29.0553 11.046 29.1796 11.1644 29.1796 11.2564C29.1796 11.3485 29.133 11.3879 28.9775 11.3879H21.329V11.6509C21.329 11.9797 21.0802 12.1112 20.5828 12.1112C20.1319 12.1112 19.9454 12.006 19.9454 11.6904C19.9454 11.3879 20.0075 10.4543 20.0075 8.57378V6.86426C19.5256 7.21931 19.0126 7.54807 18.4219 7.86367C18.3597 7.90312 18.2509 7.79792 18.2975 7.74532C19.1059 6.99576 19.821 6.1147 20.3651 5.20734C20.6916 4.66818 20.9403 4.12902 21.1269 3.61617C22.4016 3.98437 22.7747 4.11587 22.7747 4.24737C22.7747 4.39203 22.5882 4.47093 22.2151 4.51038C21.9663 4.86543 21.7176 5.20734 21.4533 5.50979ZM21.329 7.31136H23.6453V5.81224H21.329V7.31136ZM21.329 7.61382V9.11294H23.6453V7.61382H21.329ZM21.329 9.41539V11.0855H23.6453V9.41539H21.329ZM27.1587 3.27426H21.0336V3.31371C21.0336 3.61617 20.8159 3.74767 20.2874 3.74767C19.8676 3.74767 19.6966 3.64247 19.6966 3.36631C19.6966 3.26111 19.7277 2.94551 19.7277 2.30115C19.7277 1.72254 19.6966 1.28858 19.6344 0.867779C21.36 1.02558 21.4844 1.05188 21.4844 1.26228C21.4844 1.39379 21.36 1.48584 21.0336 1.57789V2.97181H23.3655V1.28858C23.3499 0.802028 23.3188 0.446974 23.2877 0.21027C25.0444 0.354923 25.1999 0.486424 25.1999 0.617926C25.1999 0.709977 25.0444 0.815178 24.7491 0.93353V2.97181H27.1587V1.91979C27.1587 1.45954 27.1276 1.07818 27.0809 0.841479C28.7755 0.999281 28.9154 1.03873 28.9154 1.26228C28.9154 1.38064 28.8065 1.45954 28.5267 1.53844V1.85404C28.5267 2.66935 28.5578 3.22166 28.5578 3.40576C28.5578 3.68192 28.2313 3.83972 27.7028 3.83972C27.3297 3.83972 27.1587 3.73452 27.1587 3.47151V3.27426ZM16.5719 8.23188V5.14159C16.09 5.69389 15.5459 6.23305 14.9396 6.75906C14.8929 6.81166 14.7064 6.70646 14.753 6.65386C15.7946 5.23364 16.5874 3.64247 17.0694 2.03814C17.2559 1.38064 17.4114 0.736278 17.4891 0.0919189C18.9193 0.368073 19.5101 0.552175 19.5101 0.762578C19.5101 0.90723 19.4013 0.959831 18.9504 1.07818C18.5618 2.19595 18.0177 3.23481 17.3181 4.20792C18.2353 4.32627 18.3597 4.36573 18.3597 4.51038C18.3597 4.62873 18.2664 4.70763 17.9555 4.83913V11.6378C17.9555 12.0191 17.6912 12.1901 17.1471 12.1901C16.7895 12.1901 16.4786 12.0849 16.4786 11.7298C16.4786 11.3879 16.5719 10.3359 16.5719 8.23188Z" fill="#E72410"/>
<path d="M7.46204 8.16626H5.75199C5.47217 10.1782 4.58605 11.0593 2.59617 11.8089C2.51844 11.8352 2.42516 11.7563 2.48735 11.7037C3.76211 10.6253 4.24404 9.82318 4.3995 8.16626H3.59111C3.21801 8.16626 2.8449 8.19256 2.34743 8.24516L2.17643 7.7586C2.72054 7.8375 3.14028 7.8638 3.54447 7.8638H4.43059C4.44613 7.48245 4.46168 7.07479 4.46168 6.60139V6.02278H3.91757C3.60666 6.02278 3.29574 6.04908 2.876 6.10168L2.70499 5.61512C3.17137 5.69402 3.51338 5.72032 3.87094 5.72032H8.87672C9.46747 5.12857 9.65402 5.02337 9.76284 5.02337C9.90276 5.02337 10.0738 5.12857 10.6179 5.50992C10.8511 5.68087 10.9754 5.79923 10.9754 5.89128C10.9754 5.98333 10.9288 6.02278 10.7733 6.02278H8.79899V7.8638H9.18764C9.87166 7.17999 10.0582 7.07479 10.167 7.07479C10.3069 7.07479 10.4624 7.17999 11.0687 7.6271C11.3174 7.82435 11.4418 7.9427 11.4418 8.03475C11.4418 8.12681 11.3952 8.16626 11.2397 8.16626H8.79899C8.81454 9.36292 8.86118 10.7437 8.86118 11.2039C8.86118 11.559 8.55026 11.7037 8.03724 11.7037C7.60196 11.7037 7.39986 11.5985 7.39986 11.296C7.39986 11.0461 7.46204 10.244 7.46204 8.70541V8.16626ZM5.78308 7.8638H7.46204V6.02278H5.86081C5.86081 6.64084 5.84527 7.24574 5.78308 7.8638ZM8.75236 4.05025V4.2212C8.75236 4.54996 8.48808 4.69461 7.95951 4.69461C7.53977 4.69461 7.35322 4.58941 7.35322 4.30011C7.35322 3.83985 7.38431 3.36644 7.38431 1.48597C7.38431 0.999413 7.36877 0.499706 7.32213 0C8.08388 0.263003 8.1927 0.328754 8.90782 0.670659H11.7683C12.3124 0.157801 12.4367 0.0789007 12.5611 0.0789007C12.7166 0.0789007 12.8409 0.157801 13.4161 0.552307C13.6804 0.749559 13.7737 0.841611 13.7737 0.946812C13.7737 1.07831 13.6804 1.15721 13.354 1.32817V2.90619C13.354 10.2703 13.3695 10.6122 13.3695 10.9672C13.3695 11.388 13.214 11.6905 12.8876 11.8878C12.6077 12.0587 12.2036 12.1376 11.6905 12.1376C11.3952 12.1376 11.3796 12.1113 11.3174 11.8352C11.2242 11.3749 10.8977 11.1119 9.84057 10.8752C9.76284 10.862 9.76284 10.7174 9.84057 10.7174C10.7267 10.77 11.0842 10.7831 11.7216 10.7831C11.8771 10.7831 11.9082 10.7437 11.9082 10.599V4.05025H8.75236ZM11.9082 2.16978V0.973112H8.75236V2.16978H11.9082ZM8.75236 2.47223V3.7478H11.9082V2.47223H8.75236ZM1.5235 4.05025V11.6248C1.5235 11.9798 1.22813 12.1376 0.652929 12.1376C0.202097 12.1376 0.0155459 12.0193 0.0155459 11.6774C0.0155459 10.862 0.108821 9.73113 0.108821 5.83868C0.108821 3.89245 0.0932756 1.94623 0 0C0.808388 0.263003 0.91721 0.315604 1.64787 0.670659H4.36841C4.89697 0.157801 5.02133 0.0789007 5.1457 0.0789007C5.30116 0.0789007 5.42553 0.157801 5.98518 0.539157C6.23392 0.710109 6.32719 0.80216 6.32719 0.907362C6.32719 1.02571 6.21837 1.11776 5.87636 1.30187V1.78842C5.87636 3.06399 5.90745 3.9582 5.90745 4.24751C5.90745 4.54996 5.61208 4.68146 5.06797 4.68146C4.66378 4.68146 4.50832 4.57626 4.50832 4.30011V4.05025H1.5235ZM4.50832 2.16978V0.973112H1.5235V2.16978H4.50832ZM1.5235 2.47223V3.7478H4.50832V2.47223H1.5235Z" fill="#E72410"/>
<path d="M184.886 26.386C186.538 27.646 187.811 29.1061 188.707 30.7661C189.602 32.4461 190 34.186 190 35.986C190 37.786 189.602 39.526 188.707 41.206C187.811 42.866 186.538 44.3261 184.866 45.6061C184.807 45.6461 184.747 45.6661 184.687 45.6661C184.628 45.6661 184.588 45.606 184.588 45.546C184.588 45.486 184.628 45.446 184.687 45.386C187.354 42.666 188.528 39.546 188.528 35.986C188.528 32.426 187.354 29.3061 184.667 26.566C184.628 26.5261 184.608 26.486 184.608 26.4261C184.608 26.366 184.647 26.326 184.707 26.326C184.767 26.326 184.827 26.346 184.886 26.386Z" fill="#E72410"/>
<path d="M177.783 37.8861H170.599C170.54 38.2061 170.48 38.5061 170.42 38.8261C169.863 41.3661 168.411 43.5661 166.262 45.0061C166.182 45.0661 166.023 44.9461 166.083 44.8661C167.416 43.2061 168.172 41.6261 168.59 39.2261C168.888 37.4661 168.988 35.2661 168.988 32.2661C168.988 29.9461 168.948 28.4461 168.868 27.2061C170.002 27.6861 170.162 27.7661 171.117 28.3461H177.604C178.28 27.5261 178.439 27.4061 178.598 27.4061C178.797 27.4061 178.976 27.5261 179.772 28.1261C180.131 28.4061 180.25 28.5461 180.25 28.7061C180.25 28.8861 180.19 28.9461 179.713 29.2861V31.5261C179.713 40.9061 179.772 41.6261 179.772 42.9061C179.772 43.8461 179.593 44.2661 178.996 44.6061C178.579 44.8661 177.942 45.0061 177.444 45.0061C177.026 45.0061 176.947 44.9261 176.887 44.5061C176.768 43.7461 176.012 43.3061 174.619 43.0061C174.519 42.9861 174.519 42.7461 174.619 42.7461C175.773 42.8061 176.688 42.8261 177.424 42.8261C177.723 42.8261 177.783 42.7661 177.783 42.4861V37.8861ZM177.783 37.4261V33.2461H170.898C170.878 34.6461 170.838 36.0261 170.659 37.4261H177.783ZM177.783 32.7861V28.8061H170.938V29.5861C170.938 30.6461 170.938 31.7261 170.918 32.7861H177.783Z" fill="#E72410"/>
<path d="M163.402 26.386C163.461 26.346 163.521 26.326 163.581 26.326C163.64 26.326 163.68 26.366 163.68 26.4261C163.68 26.486 163.66 26.5261 163.62 26.566C160.934 29.3061 159.76 32.426 159.76 35.986C159.76 39.546 160.934 42.666 163.6 45.386C163.66 45.446 163.7 45.486 163.7 45.546C163.7 45.606 163.66 45.6661 163.6 45.6661C163.541 45.6661 163.481 45.6461 163.421 45.6061C161.75 44.3261 160.477 42.866 159.581 41.206C158.686 39.526 158.288 37.786 158.288 35.986C158.288 34.186 158.686 32.4461 159.581 30.7661C160.477 29.1061 161.75 27.646 163.402 26.386Z" fill="#E72410"/>
<path d="M150.627 42.9661H142.409V43.8861C142.409 44.4661 142.011 44.6861 141.215 44.6861C140.598 44.6861 140.36 44.5061 140.36 44.0261C140.36 42.3861 140.479 40.7261 140.479 34.1261C140.479 31.9661 140.459 29.8061 140.38 27.6461C141.474 28.0861 141.633 28.1661 142.688 28.7861H150.388C151.224 27.8861 151.383 27.7661 151.542 27.7661C151.741 27.7661 151.9 27.8861 152.716 28.5661C153.074 28.8861 153.194 29.0261 153.194 29.1861C153.194 29.3861 153.055 29.5261 152.597 29.8261V32.1061C152.597 38.1461 152.716 42.3061 152.716 43.6861C152.716 44.2661 152.279 44.5061 151.483 44.5061C150.846 44.5061 150.627 44.3061 150.627 43.8461V42.9661ZM150.627 42.5061V35.9261H142.409V42.5061H150.627ZM150.627 35.4661V29.2461H142.409V35.4661H150.627Z" fill="#E72410"/>
<path d="M129.313 30.4221V30.5821C133.07 31.3501 135.171 33.3981 135.171 36.5341C135.171 40.7901 132.338 43.4781 127.881 43.4781C125.525 43.4781 124.315 42.8701 123.201 42.2301C122.182 41.5901 121.131 40.5661 121.131 39.5421C121.131 38.7741 121.959 38.1661 123.424 38.1661C124.665 38.1661 125.079 39.7021 125.461 40.5981C125.811 41.5261 126.384 42.4861 127.881 42.4861C130.109 42.4861 131.351 40.1501 131.351 36.4381C131.351 34.1341 130.364 30.9981 127.18 31.2221C126.766 31.2541 126.066 31.3181 125.748 31.3181C125.461 31.3181 125.302 31.2541 125.429 30.6781C125.525 30.0701 125.684 29.9421 126.034 29.9421C126.321 29.9421 126.862 30.0381 127.244 30.0381C128.995 30.0381 130.778 28.6301 130.778 25.0461C130.778 22.6141 129.855 20.5661 128.104 20.5661C126.989 20.5661 126.193 21.0461 125.716 22.0061C125.493 22.5501 125.461 23.0621 125.461 23.6061C125.461 24.6621 124.442 25.2701 123.073 25.2701C122.086 25.2701 121.609 24.9501 121.609 24.2461C121.609 22.4221 124.092 19.5741 128.104 19.5741C131.733 19.5741 134.407 21.5901 134.407 25.0781C134.407 28.4061 132.02 29.7821 129.313 30.4221Z" fill="#E72410"/>
<path d="M116.335 34.786C117.171 34.786 117.787 34.606 118.663 33.906C118.782 33.786 118.862 33.826 118.961 33.926C119.081 34.046 119.081 34.126 118.981 34.266C118.126 35.306 117.111 36.266 116.016 36.266C115.161 36.266 114.524 36.186 113.509 35.626C112.315 34.986 111.5 34.486 110.724 34.486C109.868 34.486 109.39 34.566 108.356 35.266C108.276 35.346 108.177 35.306 108.077 35.186C107.998 35.066 107.998 35.006 108.077 34.906C108.953 33.886 109.948 33.026 111.062 33.026C111.898 33.026 112.475 33.146 113.509 33.626C114.663 34.186 115.519 34.786 116.335 34.786Z" fill="#E72410"/>
<path d="M100.223 26.386C101.874 27.646 103.148 29.1061 104.043 30.7661C104.938 32.4461 105.336 34.186 105.336 35.986C105.336 37.786 104.938 39.526 104.043 41.206C103.148 42.866 101.874 44.3261 100.203 45.6061C100.143 45.6461 100.083 45.6661 100.024 45.6661C99.9639 45.6661 99.9241 45.606 99.9241 45.546C99.9241 45.486 99.9639 45.446 100.024 45.386C102.69 42.666 103.864 39.546 103.864 35.986C103.864 32.426 102.69 29.3061 100.004 26.566C99.9639 26.5261 99.944 26.486 99.944 26.4261C99.944 26.366 99.9838 26.326 100.043 26.326C100.103 26.326 100.163 26.346 100.223 26.386Z" fill="#E72410"/>
<path d="M88.2041 43.7061V35.0461H84.2046C83.6474 35.0461 83.1102 35.0861 82.374 35.1661L82.1551 34.4261C82.9908 34.5461 83.6076 34.5861 84.2245 34.5861H88.2041V29.9661C88.2041 28.7061 88.1643 27.7661 88.0847 27.1061C90.7112 27.3461 90.9699 27.5861 90.9699 27.8061C90.9699 28.0061 90.7311 28.1861 90.2337 28.3461V34.5861H93.3975C94.4918 33.2461 94.7306 33.0861 94.8699 33.0861C95.049 33.0861 95.2679 33.2461 96.3424 34.1261C96.8398 34.5261 96.999 34.7061 96.999 34.8461C96.999 34.9861 96.9393 35.0461 96.7403 35.0461H90.2337V43.7061H94.7306C95.8847 42.2461 96.1235 42.0861 96.2628 42.0861C96.4418 42.0861 96.6607 42.2461 97.8148 43.2061C98.352 43.6461 98.5112 43.8261 98.5112 43.9661C98.5112 44.1061 98.4515 44.1661 98.2526 44.1661H82.6127C82.0357 44.1661 81.4586 44.2061 80.7025 44.2861L80.4836 43.5461C81.3194 43.6661 81.9561 43.7061 82.5928 43.7061H88.2041Z" fill="#E72410"/>
<path d="M78.7378 26.386C78.7975 26.346 78.8572 26.326 78.9169 26.326C78.9766 26.326 79.0164 26.366 79.0164 26.4261C79.0164 26.486 78.9965 26.5261 78.9567 26.566C76.2705 29.3061 75.0965 32.426 75.0965 35.986C75.0965 39.546 76.2705 42.666 78.9368 45.386C78.9965 45.446 79.0363 45.486 79.0363 45.546C79.0363 45.606 78.9965 45.6661 78.9368 45.6661C78.8771 45.6661 78.8174 45.6461 78.7577 45.6061C77.0863 44.3261 75.8128 42.866 74.9174 41.206C74.022 39.526 73.624 37.786 73.624 35.986C73.624 34.186 74.022 32.4461 74.9174 30.7661C75.8128 29.1061 77.0863 27.646 78.7378 26.386Z" fill="#E72410"/>
<path d="M65.9633 42.9661H57.7454V43.8861C57.7454 44.4661 57.3475 44.6861 56.5515 44.6861C55.9347 44.6861 55.6959 44.5061 55.6959 44.0261C55.6959 42.3861 55.8153 40.7261 55.8153 34.1261C55.8153 31.9661 55.7954 29.8061 55.7158 27.6461C56.8102 28.0861 56.9694 28.1661 58.024 28.7861H65.7245C66.5602 27.8861 66.7194 27.7661 66.8786 27.7661C67.0776 27.7661 67.2368 27.8861 68.0526 28.5661C68.4107 28.8861 68.5301 29.0261 68.5301 29.1861C68.5301 29.3861 68.3908 29.5261 67.9332 29.8261V32.1061C67.9332 38.1461 68.0526 42.3061 68.0526 43.6861C68.0526 44.2661 67.6148 44.5061 66.8189 44.5061C66.1822 44.5061 65.9633 44.3061 65.9633 43.8461V42.9661ZM65.9633 42.5061V35.9261H57.7454V42.5061H65.9633ZM65.9633 35.4661V29.2461H57.7454V35.4661H65.9633Z" fill="#E72410"/>
<path d="M40.1926 22.8701L38.951 23.2221C38.6326 23.3181 38.5053 23.2861 38.4098 22.8701C38.3142 22.5181 38.3142 22.4221 38.6963 22.2941C40.5428 21.6221 43.3445 20.4381 45.4775 19.4141C45.7004 19.4141 45.9869 19.5741 45.9869 19.7981C45.9551 22.3581 45.8596 24.2781 45.8596 26.8701V36.8861C45.8596 40.0541 45.8914 40.4701 46.2098 41.1421C46.5281 41.8141 47.5788 41.8461 48.9159 41.9741C49.1388 42.0061 49.2024 42.1021 49.2024 42.4541C49.2024 42.8381 49.1388 42.9021 48.9159 42.9021C47.4514 42.8381 45.7004 42.8061 44.2041 42.8061C42.5485 42.8061 40.8612 42.8381 39.3649 42.9021C39.1102 42.9021 39.0465 42.8381 39.0465 42.4541C39.0465 42.1021 39.142 42.0061 39.3649 41.9741C40.702 41.8781 41.7526 41.8461 42.071 41.1421C42.4212 40.4061 42.3894 39.0301 42.3894 36.8861V25.4301C42.3894 24.2461 42.3257 23.3181 42.071 22.9661C41.8481 22.6141 41.1796 22.5821 40.1926 22.8701Z" fill="#E72410"/>
<path d="M29.0139 37.8861H21.8307C21.771 38.2061 21.7113 38.5061 21.6516 38.8261C21.0945 41.3661 19.6419 43.5661 17.493 45.0061C17.4134 45.0661 17.2542 44.9461 17.3139 44.8661C18.647 43.2061 19.4032 41.6261 19.821 39.2261C20.1195 37.4661 20.219 35.2661 20.219 32.2661C20.219 29.9461 20.1792 28.4461 20.0996 27.2061C21.2338 27.6861 21.393 27.7661 22.3481 28.3461H28.8348C29.5114 27.5261 29.6705 27.4061 29.8297 27.4061C30.0287 27.4061 30.2078 27.5261 31.0037 28.1261C31.3619 28.4061 31.4813 28.5461 31.4813 28.7061C31.4813 28.8861 31.4216 28.9461 30.944 29.2861V31.5261C30.944 40.9061 31.0037 41.6261 31.0037 42.9061C31.0037 43.8461 30.8246 44.2661 30.2277 44.6061C29.8098 44.8661 29.1731 45.0061 28.6756 45.0061C28.2578 45.0061 28.1782 44.9261 28.1185 44.5061C27.9991 43.7461 27.243 43.3061 25.8501 43.0061C25.7506 42.9861 25.7506 42.7461 25.8501 42.7461C27.0042 42.8061 27.9195 42.8261 28.6557 42.8261C28.9542 42.8261 29.0139 42.7661 29.0139 42.4861V37.8861ZM29.0139 37.4261V33.2461H22.1292C22.1093 34.6461 22.0695 36.0261 21.8904 37.4261H29.0139ZM29.0139 32.7861V28.8061H22.169V29.5861C22.169 30.6461 22.169 31.7261 22.1491 32.7861H29.0139Z" fill="#E72410"/>
<path d="M9.32818 29.7821C12.8939 31.5421 14.1674 33.5581 14.1674 36.9181C14.1674 40.5341 11.5568 43.4781 7.09961 43.4781C2.7698 43.4781 0 40.5661 0 37.1741C0 34.4861 1.91021 32.7581 4.9347 31.2861C1.78286 29.7181 0.636736 27.9261 0.636736 25.0781C0.636736 22.2621 3.34286 19.5741 7.13144 19.5741C10.8564 19.5741 13.4988 21.8141 13.4988 24.6941C13.4988 27.1261 12.1617 28.4061 9.32818 29.7821ZM8.40492 29.2701C9.90125 28.3421 10.3788 26.7741 10.3788 24.7261C10.3788 22.1981 8.97798 20.5661 7.13144 20.5661C5.06205 20.5661 3.69307 22.1661 3.69307 24.5661C3.69307 26.3261 4.42532 27.4461 8.40492 29.2701ZM5.85797 31.7981C3.75674 33.0461 3.3747 34.8701 3.3747 37.2061C3.3747 40.4061 4.87103 42.4861 7.16328 42.4861C9.55104 42.4861 11.0474 40.4701 11.0474 37.3661C11.0474 35.0621 9.74206 33.6861 5.85797 31.7981Z" fill="#E72410"/>
</svg>
