<svg width="46" height="46" viewBox="0 0 46 46" fill="none" xmlns="http://www.w3.org/2000/svg">
<g clip-path="url(#clip0_214_283)">
<path d="M8.85806 28.0317C12.3975 31.7005 16.7262 32.8151 18.3425 33.2037C18.3425 34.2546 18.2234 45.0572 18.2234 45.0572C18.2234 45.0572 0.971095 44.7897 0.645342 44.7769C0.588962 40.9425 0.664136 20.382 1.08386 1.45845C1.57875 1.45845 17.4153 1.40749 18.2234 1.40112C18.5743 16.5413 18.3425 29.8788 18.3425 29.8788C13.4311 29.261 10.2362 26.0699 10.0295 25.9425C9.95434 26.0572 8.87685 27.6495 8.85806 28.0381V28.0317ZM10.6497 10.8788C9.16502 10.8788 7.96851 12.1527 7.96851 13.7323C7.96851 15.312 9.17128 16.5858 10.6497 16.5858C12.1281 16.5858 13.3309 15.312 13.3309 13.7323C13.3309 12.1527 12.1281 10.8788 10.6497 10.8788Z" fill="#00839E" stroke="white" stroke-width="2"/>
<path d="M33.9722 21.2037C37.7685 26.3311 45.5427 35.0891 45.3673 35.2101C43.8513 36.4967 31.7984 45.1145 31.7984 45.1145L23.1723 32.9234C23.1723 32.9234 26.8432 32.2674 31.3349 28.3757C31.3411 28.2738 30.2135 26.261 30.2135 26.261C30.2135 26.261 26.2607 29.8916 21.0674 29.8916C20.3407 29.0063 15.4983 22.3502 15.4983 22.3502C15.4983 22.3502 20.4096 14.4012 29.5746 0.891602C32.3497 2.87886 36.9729 5.81517 42.1411 9.46485C39.8232 13.1591 35.1374 19.2228 33.9659 21.2037H33.9722ZM28.5472 10.6177C26.9309 10.6177 25.6217 11.9871 25.6217 13.675C25.6217 15.3629 26.9309 16.7324 28.5472 16.7324C30.1634 16.7324 31.4727 15.3629 31.4727 13.675C31.4727 11.9871 30.1634 10.6177 28.5472 10.6177Z" fill="#44AC3F" stroke="white" stroke-width="2"/>
</g>
<defs>
<clipPath id="clip0_214_283">
<rect width="46" height="46" fill="white"/>
</clipPath>
</defs>
</svg>
