<svg width="205" height="151" viewBox="0 0 205 151" fill="none" xmlns="http://www.w3.org/2000/svg">
<path d="M187.931 21.6597C188.723 21.9041 189.396 22.1484 189.969 22.3799C190.609 22.6372 191.131 22.8944 191.585 23.1645C192.596 23.7562 193 24.2578 193 24.6308C193 25.0295 192.646 25.3253 192.225 25.3253C191.788 25.3253 191.484 25.2353 191.181 24.888C190.592 24.2192 190.003 23.5246 189.228 22.9716C188.571 22.5086 188.117 22.2513 187.544 21.9812C186.281 23.0102 184.867 23.8333 183.418 24.5021C182.307 25.0037 181.229 25.351 180.539 25.5182C180.404 25.5568 180.286 25.5825 180.168 25.5825C180.084 25.5825 180 25.5568 180 25.4668C180 25.4153 180.051 25.351 180.118 25.3253C182.105 24.5021 183.519 23.6661 185.389 22.2127C186.719 21.1709 187.578 20.2706 188.807 18.8044C188.874 18.7272 188.908 18.6758 188.908 18.65C188.908 18.6115 188.858 18.5986 188.689 18.6115C187.51 18.7144 185.995 18.9073 184.664 19.1259C184.227 19.2031 184.025 19.2674 183.89 19.3317C183.738 19.396 183.604 19.4732 183.301 19.4732C182.981 19.4732 182.644 19.3189 182.172 18.8687C181.852 18.56 181.819 18.3671 181.819 18.0455C181.819 17.8012 181.937 17.7111 182.038 17.7111C182.088 17.7111 182.155 17.7626 182.273 17.8655C182.745 18.2642 182.93 18.3542 183.435 18.3542C183.637 18.3542 184.058 18.3285 184.715 18.2771C186.096 18.1613 187.224 18.0455 188.42 17.9169C188.74 17.8783 188.942 17.8269 189.093 17.724C189.245 17.6211 189.363 17.5825 189.582 17.5825C189.902 17.5825 190.12 17.6983 190.474 17.9298C190.979 18.2642 191.181 18.47 191.181 18.65C191.181 18.7787 191.131 18.9073 190.626 19.0359C190.474 19.0745 190.373 19.1774 190.222 19.3446C189.497 20.1549 188.874 20.8494 187.931 21.6597Z" fill="#E72410"/>
<path d="M175.25 16.5825C175.956 16.5825 176.524 17.006 176.524 17.559C176.524 18.1002 175.956 18.5355 175.25 18.5355C174.544 18.5355 173.976 18.1002 173.976 17.559C173.976 17.006 174.544 16.5825 175.25 16.5825ZM175.25 16.9119C174.79 16.9119 174.406 17.206 174.406 17.559C174.406 17.9002 174.79 18.1943 175.25 18.1943C175.695 18.1943 176.079 17.9002 176.079 17.559C176.079 17.206 175.695 16.9119 175.25 16.9119ZM172.457 18.8178C172.58 18.8178 172.764 18.8531 172.963 18.9119C173.9 19.1708 174.821 19.5119 175.665 20.1119C176.54 20.7355 177 21.3119 177 21.7355C177 22.1119 176.77 22.5119 176.202 22.5119C175.603 22.5119 175.465 22.159 175.25 21.806C174.897 21.206 174.498 20.6884 174.038 20.2413C173.593 19.806 173.117 19.4413 172.58 19.1355C172.396 19.0296 172.303 18.9825 172.303 18.9119C172.303 18.8413 172.365 18.8178 172.457 18.8178ZM168.466 18.9825C168.804 18.9825 169.111 19.1002 169.648 19.3943C170.277 19.7355 170.477 19.9943 170.477 20.2413C170.477 20.4296 170.323 20.5708 170.124 20.6531C169.924 20.7355 169.771 20.806 169.403 21.0884C168.881 21.4884 168.267 21.8884 167.591 22.2649C166.763 22.7237 165.826 23.1355 164.798 23.4531C164.491 23.5472 164.276 23.5825 164.2 23.5825C164.061 23.5825 164 23.5472 164 23.4766C164 23.3943 164.092 23.3708 164.338 23.2413C165.259 22.759 166.041 22.2649 166.732 21.7472C167.285 21.3355 167.776 20.8884 168.221 20.4178C168.512 20.1002 168.62 19.9472 168.62 19.7825C168.62 19.6649 168.436 19.4884 168.052 19.2884C167.929 19.2296 167.898 19.1943 167.898 19.159C167.898 19.1002 168.251 18.9825 168.466 18.9825Z" fill="#E72410"/>
<path d="M152.535 23.9985C152.728 23.9985 153.019 23.892 153.358 23.7323C154.844 23.0135 156.427 22.1216 157.833 21.1233C159.319 20.0318 160.53 18.9802 161.628 17.8754C161.709 17.7955 161.79 17.7556 161.838 17.7556C161.952 17.7556 162 17.8088 162 17.8754C162 17.9419 161.968 18.0085 161.903 18.1017C160.966 19.4594 159.997 20.5908 158.543 21.8288C157.154 23.0002 155.797 23.9719 154.231 24.9436C154.053 25.0501 153.891 25.1832 153.811 25.2631C153.665 25.4228 153.455 25.5825 153.164 25.5825C152.825 25.5825 152.615 25.4627 152.179 25.0767C151.485 24.4644 151.275 24.1183 151.275 23.8388C151.275 23.5592 151.388 23.3329 151.533 23.3329C151.614 23.3329 151.662 23.3862 151.791 23.506C152.147 23.8121 152.373 23.9985 152.535 23.9985ZM151.113 17.8221C151.032 17.7822 151 17.7423 151 17.689C151 17.6225 151.065 17.5825 151.162 17.5825C151.226 17.5825 151.307 17.5825 151.468 17.5958C152.098 17.6624 152.809 17.8088 153.52 18.1283C154.263 18.4611 154.634 18.9802 154.634 19.4594C154.634 19.912 154.247 20.2048 153.762 20.2048C153.455 20.2048 153.148 20.0717 152.971 19.7123C152.841 19.4594 152.648 19.1532 152.292 18.7539C151.888 18.3146 151.501 18.0085 151.113 17.8221Z" fill="#E72410"/>
<path d="M139.885 20.6914C141.068 20.4468 141.959 20.2022 142.558 20.0625C142.819 20.0043 142.896 19.9693 143.034 19.8529C143.141 19.7714 143.264 19.7131 143.449 19.7131C143.664 19.7131 143.971 19.8063 144.524 20.1091C144.862 20.2954 145 20.4468 145 20.6098C145 20.7612 144.908 20.866 144.555 20.9126C144.447 20.9243 144.339 20.9359 144.201 21.0291C143.433 21.5764 142.742 22.0073 141.882 22.4499C141.682 22.5547 141.528 22.6245 141.421 22.6245C141.359 22.6245 141.313 22.6012 141.313 22.5547C141.313 22.5081 141.359 22.4382 141.513 22.3101C142.112 21.7395 142.604 21.1688 143.065 20.5633C143.095 20.5167 143.08 20.4934 143.003 20.505C142.081 20.703 140.975 20.9709 140.069 21.1805C140.177 21.5415 140.269 21.9142 140.422 22.3567C140.668 23.0554 140.914 23.7658 141.175 24.4995C141.267 24.744 141.375 25.0934 141.375 25.2215C141.375 25.4428 141.052 25.5825 140.745 25.5825C140.469 25.5825 140.253 25.5243 140.192 25.3147C139.916 24.3481 139.639 23.3699 139.363 22.4033C139.27 22.0888 139.163 21.7395 139.055 21.3901C137.888 21.6812 137.396 21.8326 137.012 21.9724C136.843 22.0423 136.736 22.0772 136.674 22.1354C136.567 22.2169 136.459 22.2635 136.306 22.2752C136.075 22.2868 135.814 22.182 135.492 21.9258C135.061 21.5997 135 21.46 135 21.2271C135 21.099 135.092 21.0058 135.154 21.0058C135.2 21.0058 135.261 21.0524 135.353 21.1106C135.584 21.2736 135.86 21.3785 136.106 21.3785C136.275 21.3785 136.475 21.3668 136.674 21.3319C137.35 21.2038 138.134 21.0407 138.886 20.8777C138.702 20.3187 138.594 20.0043 138.472 19.6433C138.426 19.5035 138.379 19.422 138.318 19.3055C138.257 19.1891 138.149 19.1309 138.041 19.1076C137.903 19.0726 137.719 19.061 137.535 19.061C137.442 19.061 137.381 19.0493 137.381 18.9911C137.381 18.9212 137.473 18.8164 137.611 18.7349C137.78 18.6301 137.995 18.5835 138.134 18.5835C138.487 18.5719 138.871 18.665 139.209 18.7582C139.67 18.8863 139.808 19.0144 139.808 19.1425C139.808 19.2473 139.777 19.3172 139.731 19.3871C139.685 19.4569 139.67 19.5035 139.654 19.5617C139.639 19.6083 139.639 19.6549 139.67 19.783C139.716 19.9926 139.762 20.1906 139.885 20.6914Z" fill="#E72410"/>
<path d="M124.778 21.062C125.832 20.8844 126.627 20.7204 127.259 20.5701C127.454 20.5291 127.632 20.4744 127.762 20.3788C127.908 20.2831 128.119 20.2285 128.557 20.2421C128.914 20.2558 129.27 20.2831 129.514 20.3788C129.838 20.4881 130 20.6521 130 20.8844C130 21.144 129.741 21.308 129.303 21.308C129.222 21.308 128.995 21.308 128.735 21.3217C127.892 21.349 127.065 21.4446 124.957 21.8136C125.232 23.18 125.476 24.3552 125.751 25.4484C125.849 25.79 125.881 25.9539 125.881 26.0633C125.881 26.4049 125.476 26.5825 125.07 26.5825C124.714 26.5825 124.503 26.4459 124.422 25.9813C124.211 24.7378 123.984 23.4807 123.708 22.0732C122.541 22.3055 121.649 22.4831 121.049 22.6881C120.659 22.8248 120.384 22.9204 120.254 23.0297C120.108 23.1527 119.93 23.2074 119.719 23.2074C119.297 23.2074 118.714 22.8657 118.178 22.3875C118.065 22.2918 118 22.1142 118 21.9502C118 21.8546 118.016 21.7862 118.097 21.7862C118.162 21.7862 118.243 21.8136 118.373 21.8956C118.551 21.9912 118.892 22.1005 119.151 22.1005C119.476 22.1005 119.93 22.0459 120.562 21.9229C121.389 21.7589 122.427 21.5403 123.546 21.3217C123.416 20.6384 123.303 20.0098 123.157 19.3403C122.054 19.5589 121.551 19.6819 121.162 19.7912C120.903 19.8595 120.741 19.9005 120.595 19.9689C120.416 20.0645 120.286 20.1055 120.108 20.1055C119.93 20.1055 119.638 19.9962 119.232 19.6546C118.843 19.3266 118.681 19.0943 118.681 18.903C118.681 18.7664 118.73 18.6434 118.795 18.6434C118.859 18.6434 118.908 18.6707 119.005 18.739C119.346 18.9577 119.589 19.0943 120.092 19.0943C120.254 19.0943 120.497 19.067 121.065 18.9713C121.714 18.862 122.362 18.739 122.962 18.6161C122.67 17.2906 122.605 16.9216 122.476 16.58C122.427 16.4571 122.378 16.3341 122.281 16.2931C122.022 16.1838 121.73 16.1701 121.438 16.1291C121.324 16.1154 121.259 16.0744 121.259 16.0061C121.259 15.9241 121.47 15.7465 121.584 15.6918C121.746 15.6098 121.973 15.5825 122.232 15.5825C122.508 15.5825 122.978 15.6098 123.595 15.7602C123.968 15.8558 124.259 16.0608 124.259 16.3067C124.259 16.4571 124.211 16.539 124.146 16.621C124.081 16.703 123.984 16.826 124.016 17.0446C124.065 17.4682 124.097 17.7415 124.211 18.3564C124.714 18.2471 125.33 18.1105 125.865 17.9738C125.995 17.9465 126.124 17.8918 126.286 17.7825C126.465 17.6595 126.724 17.5229 126.984 17.5229C127.503 17.5229 127.843 17.5776 128.086 17.6595C128.314 17.7279 128.443 17.9328 128.443 18.0695C128.443 18.1925 128.443 18.2744 128.249 18.3701C128.119 18.4248 127.973 18.4521 127.681 18.5067C126.578 18.6844 125.492 18.903 124.389 19.0943C124.503 19.7092 124.632 20.3788 124.778 21.062Z" fill="#E72410"/>
<path d="M93.2071 10.5673V15.5729L103.689 14.683C105.546 12.5417 105.856 12.3749 106.165 12.3749C106.552 12.3749 106.939 12.5417 109.182 13.6263C110.265 14.1546 110.497 14.3215 110.497 14.5439C110.497 14.683 110.304 14.7664 109.956 14.7942L93.2071 16.2125V20.7175C93.2071 22.3582 93.7873 22.5528 99.0091 22.5528C104.27 22.5528 106.049 22.386 106.784 21.8298C107.325 21.4127 107.635 20.8565 108.911 17.9366C108.95 17.7976 109.375 17.8532 109.375 17.9922C109.298 18.9933 109.259 19.9944 109.259 20.8009C109.259 21.3014 109.491 21.5239 109.917 21.7186C110.768 22.1079 111 22.386 111 22.8031C111 23.5261 110.381 24.0545 108.911 24.416C107.171 24.8331 104.192 25 99.7053 25C91.041 25 89.4937 24.416 89.4937 21.1068C89.4937 20.3281 89.5711 19.5773 89.5711 16.5184L80.868 17.2414C79.4369 17.3804 78.5472 17.4917 77.5029 17.6863L77 16.6852C79.0114 16.7408 79.6689 16.713 80.6746 16.6296L89.5711 15.8788V10.8732L82.1832 11.485C80.752 11.5962 79.8624 11.7353 78.818 11.9299L78.2765 10.9288C80.2878 10.9566 81.1388 10.9288 81.9511 10.8454L89.5711 10.2058V5.70078C86.3606 6.06229 82.9955 6.28476 79.5529 6.36819C79.3595 6.36819 79.2435 6.00667 79.4369 5.97887C86.2833 5.06118 92.3174 3.78198 96.8043 2.30812C99.0478 1.58509 100.904 0.806453 102.258 0C105.082 1.39043 106.242 2.11346 106.242 2.53059C106.242 2.78087 106.01 2.94772 105.391 2.94772C105.082 2.94772 104.618 2.8921 104.038 2.78087C100.75 3.80979 97.1138 4.64405 93.2071 5.22803V9.89989L101.369 9.23248C103.148 7.25807 103.457 7.09121 103.767 7.09121C104.154 7.09121 104.54 7.25807 106.629 8.23137C107.635 8.73192 107.867 8.89878 107.867 9.12125C107.867 9.26029 107.635 9.34372 107.325 9.37152L93.2071 10.5673Z" fill="#E72410"/>
<path d="M51.1933 12.7318V16.6145H53.292C54.7689 15.3855 55.2353 15.162 55.5074 15.162C55.8572 15.162 56.2847 15.3855 57.7227 16.1955C58.3445 16.5587 58.6555 16.7821 58.6555 16.9777C58.6555 17.1732 58.5389 17.257 58.1502 17.257H51.1933V20.8603C53.875 20.5251 56.4401 20.1899 58.1113 19.8827C58.3057 19.8547 58.4223 20.162 58.2668 20.2179C54.4191 21.6704 49.4055 22.9832 42.8761 24.1564C42.6817 24.7989 42.4485 25.0782 41.9433 25.0782C41.2826 25.0782 41.2826 25.0223 40 21.7821C41.1271 21.7821 43.187 21.6704 45.5578 21.4469C46.2962 21.3911 47.0735 21.3073 47.8508 21.2235V17.257H43.1093C42.4097 17.257 41.7489 17.3128 40.8162 17.4246L40.3887 16.3911C41.3992 16.5587 42.1765 16.6145 42.9538 16.6145H47.8508V12.7318H44.7027V13.4022C44.7027 14.1564 44.042 14.4358 42.7595 14.4358C41.749 14.4358 41.3603 14.1844 41.3603 13.6257C41.3603 12.2291 41.5546 10.581 41.5546 4.88268C41.5546 3.59777 41.5158 2.31285 41.2826 1C43.187 1.53073 43.3424 1.61453 45.0914 2.36872H53.7973C55.1964 1.22346 55.5074 1.05587 55.8183 1.05587C56.2069 1.05587 56.479 1.22346 57.8782 2.08939C58.4611 2.48045 58.6943 2.70391 58.6943 2.92737C58.6943 3.2067 58.5 3.3743 57.5672 3.76536V5.24581C57.5672 9.21229 57.7616 12.0056 57.7616 12.8994C57.7616 13.6257 57.1009 13.933 55.8572 13.933C54.7689 13.933 54.3803 13.7095 54.3803 13.095V12.7318H51.1933ZM51.1933 12.0894H54.3803V7.73184H51.1933V12.0894ZM51.1933 7.08939H54.3803V3.01117H51.1933V7.08939ZM44.7027 12.0894H47.8508V7.73184H44.7027V12.0894ZM44.7027 7.08939H47.8508V3.01117H44.7027V7.08939ZM64.6408 10.9162H61.3761C60.6765 10.9162 60.0158 10.9721 59.083 11.1397L58.6555 10.0503C59.7048 10.2179 60.4822 10.2737 61.2595 10.2737H71.792C73.1912 9.12849 73.5021 8.96089 73.813 8.96089C74.2017 8.96089 74.4737 9.12849 76.0672 10.2179C76.7668 10.7207 77 10.9441 77 11.1676C77 11.5307 76.7668 11.6425 75.7563 11.7821C75.1733 11.8659 75.0956 11.8939 74.5126 12.4804C73.4632 13.3743 71.7143 14.6313 70.5483 15.3575C70.3929 15.4413 70.0431 15.2737 70.1208 15.1341C71.0147 13.7654 71.792 12.0894 72.1418 10.9162H68.1775V18.2626C68.1775 20.5531 68.2941 22.1453 68.2941 23.2905C68.2941 24.4078 67.9443 24.8827 66.9727 25.3575C66.1565 25.7486 65.0294 26 63.9412 26C63.3582 26 63.3193 25.8883 63.125 25.1061C62.8918 24.1006 61.8813 23.7095 58.6555 23.0391C58.4611 23.0112 58.4611 22.648 58.6555 22.648C60.6765 22.7877 62.4643 22.8994 64.0189 22.8994C64.4853 22.8994 64.6408 22.8156 64.6408 22.5084V10.9162ZM61.6481 2.36872H70.5872C72.1418 1.30726 72.4527 1.1676 72.7637 1.1676C73.23 1.1676 73.6187 1.30726 75.1345 2.36872C75.6786 2.75978 75.9895 3.12291 75.9895 3.31844C75.9895 3.68156 75.7952 3.7933 74.6681 3.96089C74.2017 4.01676 73.9685 4.10056 73.4632 4.40782C71.0924 5.9162 69.9265 6.55866 68.5273 7.22905C69.0714 7.62011 69.3823 8.09497 69.3823 8.56983C69.3823 9.37989 68.5662 10.0503 67.4391 10.0503C66.5452 10.0503 66.2343 9.82682 65.6513 8.82123C64.874 7.42458 63.8635 6.36313 62.5809 5.60894C62.4254 5.52514 62.5809 5.38547 62.7752 5.41341C64.874 5.72067 66.5063 6.13966 67.6334 6.69833C68.8771 5.46927 69.8099 4.21229 70.5483 3.01117H61.7647C61.104 3.01117 60.6765 3.03911 59.8603 3.17877L59.4328 2.17318C60.0546 2.28492 60.7931 2.34078 61.6481 2.36872Z" fill="#E72410"/>
<path d="M20.4388 12.0659V24.1665H29.7116C31.9248 22.0683 32.3827 21.8383 32.6498 21.8383C32.9933 21.8383 33.413 22.0683 35.6644 23.4479C36.6947 24.0802 37 24.3389 37 24.5401C37 24.7413 36.8855 24.8275 36.5039 24.8275H7.08305C5.97643 24.8275 4.71719 24.8563 3.41977 25L3 23.9365C4.60269 24.109 5.8238 24.1665 7.04489 24.1665H16.5084V5.05269C16.5084 3.32814 16.4321 1.9485 16.2795 1C21.3165 1.31617 21.7744 1.63234 21.7744 1.9485C21.7744 2.26467 21.3165 2.52335 20.4388 2.75329V11.4048H26.6588C28.7194 9.36407 29.1773 9.13413 29.4444 9.13413C29.7879 9.13413 30.2076 9.36407 32.3446 10.715C33.2985 11.3186 33.6038 11.5772 33.6038 11.7784C33.6038 11.9796 33.4893 12.0659 33.1077 12.0659H20.4388Z" fill="#E72410"/>
<path d="M186.177 9.02923V8.73099C186.177 8.26232 186.177 8.12029 186.137 7.66582C186.602 7.75104 186.947 7.80785 187.199 7.85045C187.85 7.21135 188.168 6.79949 188.553 6.2172H184.212C183.987 6.2172 183.761 6.24561 183.456 6.33082L183.31 5.77693C183.655 5.86215 183.907 5.89055 184.173 5.89055H188.58C189.124 5.36507 189.23 5.27986 189.336 5.27986C189.469 5.27986 189.575 5.36507 190.093 5.86215C190.319 6.07518 190.398 6.17459 190.398 6.28821C190.398 6.48704 190.252 6.55805 189.748 6.57226C188.858 7.25396 188.327 7.59481 187.637 7.94987C187.889 8.02088 187.889 8.07769 187.889 8.1771C187.889 8.31913 187.77 8.41854 187.425 8.58897V9.02923H190.664C191.341 8.1345 191.5 8.02088 191.593 8.02088C191.712 8.02088 191.858 8.1345 192.562 8.71679C192.881 9.00083 192.987 9.11445 192.987 9.21386C192.987 9.31328 192.947 9.35588 192.814 9.35588H187.425V10.8613C187.438 11.6424 187.465 12.0117 187.465 12.5514C187.465 12.9348 187.385 13.2473 187.226 13.4745C186.987 13.8296 186.549 14 185.885 14C185.633 14 185.606 13.9432 185.553 13.6307C185.487 13.1195 185.102 12.878 184.04 12.594C183.973 12.5798 183.987 12.3952 184.053 12.3952C184.783 12.452 185.473 12.4946 185.951 12.4946C186.111 12.4946 186.177 12.4378 186.177 12.2815V9.35588H181.982C181.73 9.35588 181.478 9.38429 181.146 9.4411L181 8.91562C181.372 9.00083 181.65 9.02923 181.929 9.02923H186.177ZM182.686 4.03006H188.54C188.819 3.56139 189.124 2.9649 189.389 2.38261C189.588 1.91394 189.761 1.45947 189.867 1.09021C191.062 1.6725 191.447 1.91394 191.447 2.09857C191.447 2.26899 191.288 2.36841 190.836 2.36841C190.345 2.92229 189.588 3.604 189.004 4.03006H191.062C191.606 3.40517 191.712 3.31996 191.819 3.31996C191.951 3.31996 192.044 3.40517 192.655 4.05847C192.92 4.35672 193 4.47033 193 4.58395C193 4.81119 192.934 4.85379 192.429 4.8964C192.217 4.9106 192.204 4.9106 192.111 5.01002C191.819 5.29406 191.288 5.64911 190.863 5.89055C190.81 5.91896 190.717 5.84794 190.743 5.77693C190.889 5.40768 191.035 4.98161 191.168 4.35672H182.726C182.819 5.5639 182.407 6.31662 181.69 6.31662C181.279 6.31662 181 6.00417 181 5.5639C181 5.25145 181.106 5.05262 181.412 4.8822C182.115 4.51294 182.288 4.2289 182.407 3.33416C182.42 3.26315 182.527 3.24894 182.54 3.31996C182.606 3.57559 182.659 3.80283 182.686 4.03006ZM187.796 2.83708C187.796 3.30575 187.478 3.6182 187.053 3.6182C186.668 3.6182 186.575 3.47618 186.442 2.70926C186.323 2.08437 186.097 1.58729 185.726 1.13282C185.686 1.07601 185.726 0.976594 185.792 1.005C187.186 1.50208 187.796 2.05596 187.796 2.83708ZM184.982 3.03591C184.982 3.50458 184.677 3.85964 184.265 3.85964C183.907 3.85964 183.774 3.67501 183.628 2.9649C183.496 2.38261 183.257 1.85713 182.912 1.47367C182.872 1.41686 182.925 1.31745 182.991 1.33165C184.398 1.75771 184.982 2.2832 184.982 3.03591Z" fill="#E72410"/>
<path d="M179.608 5.39138H174.812C175.189 7.36093 175.885 8.93658 177.004 10.2058C177.793 11.1104 178.818 11.8107 179.961 12.2629C180.02 12.2921 180.008 12.4234 179.949 12.4526C179.502 12.686 179.266 12.9924 179.125 13.6197C179.078 13.824 179.03 13.9115 178.948 13.9115C178.795 13.9115 178.536 13.751 178.217 13.4738C177.593 12.934 176.78 12.0149 176.309 11.2417C175.425 9.78276 174.871 7.92992 174.636 5.7707C174.412 8.00286 173.94 9.50556 172.974 10.9645C172.032 12.3797 170.783 13.3717 169.098 13.9991C169.039 14.0137 168.968 13.8532 169.015 13.824C170.83 12.6131 172.079 10.9791 172.809 8.86363C173.127 7.94451 173.351 6.80654 173.469 5.39138H170.335C170.017 5.39138 169.687 5.42056 169.263 5.47891L169.133 4.93911C169.628 5.02665 169.993 5.05582 170.359 5.05582H173.493C173.552 4.23882 173.587 3.34888 173.587 2.3568C173.587 1.84618 173.575 1.59816 173.54 1C174.954 1.23343 175.213 1.32096 175.213 1.59816C175.213 1.75864 175.13 1.84618 174.801 2.02125C174.801 3.14463 174.765 4.25341 174.695 5.05582H177.699C178.324 4.04916 178.465 3.93245 178.547 3.93245C178.653 3.93245 178.771 4.04916 179.396 4.72027C179.667 5.01206 179.761 5.14336 179.761 5.24549C179.761 5.34761 179.726 5.39138 179.608 5.39138Z" fill="#E72410"/>
<path d="M157.434 9.77922V7.85173C157.03 8.25974 156.589 8.62554 156.11 8.9632C156.06 9.00541 155.971 8.89286 156.009 8.83658C156.816 7.82359 157.472 6.71212 157.938 5.60065C158.153 5.09416 158.329 4.58766 158.455 4.08117C159.729 4.68615 159.792 4.72836 159.792 4.89719C159.792 5.02381 159.691 5.09416 159.363 5.19264C159.023 5.82576 158.657 6.4026 158.254 6.92316C158.77 7.02165 158.846 7.09199 158.846 7.23269C158.846 7.35931 158.77 7.42965 158.518 7.55628V13.4232C158.518 13.8171 158.304 14 157.875 14C157.61 14 157.358 13.8734 157.358 13.4654C157.358 13.0996 157.434 12.0022 157.434 9.77922ZM164.457 4.70022H162.528C162.528 9.72294 162.616 12.368 162.616 13.3387C162.616 13.7608 162.351 13.9719 161.86 13.9719C161.519 13.9719 161.355 13.8171 161.355 13.4654C161.355 12.8041 161.431 10.7922 161.431 6.78247V4.70022H160.611C160.397 4.70022 160.183 4.72836 159.893 4.78463L159.754 4.26407C160.082 4.34849 160.334 4.37662 160.586 4.37662H161.431C161.418 2.25217 161.393 1.60498 161.317 1.11255C162.881 1.26732 162.944 1.29546 162.944 1.52056C162.944 1.64719 162.893 1.68939 162.528 1.90043V4.37662H163.032C163.436 3.82792 163.587 3.71537 163.675 3.71537C163.789 3.71537 163.927 3.82792 164.343 4.17965C164.52 4.34849 164.621 4.46104 164.621 4.55952C164.621 4.65801 164.583 4.70022 164.457 4.70022ZM166.6 5.79762V10.4264C166.6 11.355 166.613 12.1288 166.613 12.4242C166.613 12.9167 166.6 13.0714 166.512 13.2543C166.348 13.6061 165.844 13.8734 165.314 13.8734C165.125 13.8734 165.087 13.8171 165.05 13.5357C164.974 13.0152 164.797 12.8745 163.902 12.6071C163.839 12.5931 163.852 12.4383 163.915 12.4383C164.432 12.4805 164.898 12.5087 165.289 12.5087C165.453 12.5087 165.491 12.4805 165.491 12.3117V5.79762H164.923C164.709 5.79762 164.495 5.82576 164.205 5.88203L164.066 5.36147C164.394 5.44589 164.646 5.47403 164.898 5.47403H166.336C166.777 4.84091 166.928 4.72836 167.017 4.72836C167.13 4.72836 167.269 4.84091 167.71 5.26299C167.899 5.44589 168 5.55844 168 5.65693C168 5.75541 167.962 5.79762 167.836 5.79762H166.6ZM165.365 2.33658H166.071C166.525 1.70346 166.676 1.59091 166.764 1.59091C166.878 1.59091 167.017 1.70346 167.458 2.12554C167.647 2.30844 167.748 2.421 167.748 2.51948C167.748 2.61797 167.71 2.66017 167.584 2.66017H165.39C165.176 2.66017 164.961 2.68831 164.671 2.74459L164.533 2.22403C164.86 2.30844 165.113 2.33658 165.365 2.33658ZM164.293 2.89935C164.293 3.25108 164.053 3.56061 163.776 3.56061C163.549 3.56061 163.486 3.47619 163.385 3.06818C163.284 2.67424 163.07 2.25217 162.818 1.9145C162.78 1.85823 162.843 1.77381 162.906 1.78788C163.94 2.0974 164.293 2.39286 164.293 2.89935ZM164.646 10.3279C164.646 10.9188 164.381 11.2987 163.978 11.2987C163.612 11.2987 163.511 11.0595 163.511 9.76515C163.511 8.65368 163.322 7.62662 162.931 6.30411C162.906 6.23377 162.994 6.20563 163.032 6.26191C164.079 7.71104 164.646 9.13204 164.646 10.3279ZM159.905 1.88636C159.905 2.0552 159.741 2.12554 159.363 2.13961C158.506 3.41991 157.459 4.41883 156.274 5.08009C156.224 5.10823 156.135 4.9816 156.186 4.93939C156.778 4.30628 157.358 3.40584 157.8 2.53355C158.077 1.98485 158.291 1.45022 158.405 1C159.376 1.39394 159.905 1.68939 159.905 1.88636ZM161.229 6.86688C161.229 6.99351 161.191 7.02165 160.864 7.17641C160.51 9.38528 160.019 10.8344 159.161 12.1147C159.124 12.171 159.035 12.1007 159.048 12.0303C159.451 10.5249 159.804 8.18939 159.804 6.88095C159.804 6.75433 159.792 6.55736 159.779 6.30411C161.002 6.55736 161.229 6.65585 161.229 6.86688Z" fill="#E72410"/>
<path d="M154.5 9.88804H149.154C149.748 10.75 150.548 11.4283 151.62 11.8098C152.524 12.1348 153.622 12.3185 154.952 12.3609C155.016 12.3609 155.016 12.5022 154.952 12.5304C154.474 12.7707 154.241 13.1239 154.061 13.8446C154.035 13.9435 153.97 14 153.88 14C153.738 14 153.518 13.9435 153.234 13.8587C152.537 13.6467 151.543 13.1522 150.987 12.7565C150.083 12.1065 149.412 11.2304 148.947 10.1424C148.676 10.9902 148.237 11.7109 147.617 12.2761C146.571 13.2511 145.048 13.8304 143.072 14C143.007 14 142.969 13.788 143.033 13.7739C144.609 13.3783 145.809 12.7 146.636 11.7674C147.126 11.2304 147.475 10.6087 147.695 9.88804H144.415C144.079 9.88804 143.743 9.9163 143.304 9.97282L143.162 9.45C143.653 9.53478 144.015 9.56304 144.376 9.56304H147.772C147.875 9.09674 147.94 8.60217 147.927 8.07935C149.606 8.3337 149.644 8.34783 149.644 8.55978C149.644 8.72935 149.502 8.84239 149.18 8.9413C149.154 9.15326 149.128 9.35109 149.089 9.56304H152.614C153.208 8.8 153.363 8.68696 153.454 8.68696C153.57 8.68696 153.712 8.8 154.306 9.3087C154.564 9.53478 154.667 9.64783 154.667 9.74674C154.667 9.84565 154.629 9.88804 154.5 9.88804ZM148.108 7.51413V5.6913H145.512C145.241 5.6913 144.957 5.71956 144.596 5.77609L144.454 5.25326C144.867 5.33804 145.164 5.3663 145.474 5.3663H148.108V3.71304H144.789C144.505 3.71304 144.221 3.7413 143.834 3.79783L143.692 3.275C144.118 3.35978 144.428 3.38804 144.751 3.38804H149.683C149.929 2.87935 150.122 2.41304 150.29 1.975C150.432 1.62174 150.535 1.29674 150.6 1C151.736 1.5087 152.137 1.74891 152.137 1.93261C152.137 2.11631 152.033 2.1587 151.556 2.18696C151.129 2.63913 150.626 3.09131 150.213 3.38804H152.266C152.847 2.68152 153.002 2.56848 153.092 2.56848C153.208 2.56848 153.35 2.68152 153.893 3.1337C154.138 3.35978 154.241 3.47283 154.241 3.57174C154.241 3.67065 154.203 3.71304 154.074 3.71304H149.335V5.3663H151.452C152.02 4.65978 152.175 4.54674 152.266 4.54674C152.382 4.54674 152.524 4.65978 153.066 5.12609C153.286 5.32391 153.389 5.45109 153.389 5.55C153.389 5.64891 153.35 5.6913 153.221 5.6913H149.335V7.51413H152.627C153.208 6.77935 153.363 6.6663 153.454 6.6663C153.57 6.6663 153.712 6.77935 154.28 7.25978C154.525 7.48587 154.629 7.59891 154.629 7.69783C154.629 7.79674 154.59 7.83913 154.461 7.83913H144.324C144.002 7.83913 143.679 7.86739 143.253 7.92391L143.111 7.40109C143.576 7.48587 143.937 7.51413 144.286 7.51413H148.108ZM147.811 2.56848C147.811 3.02065 147.604 3.26087 147.126 3.26087C146.83 3.26087 146.726 3.14783 146.61 2.70978C146.455 2.07391 146.21 1.60761 145.874 1.22609C145.835 1.16957 145.874 1.08478 145.939 1.09891C147.204 1.29674 147.811 1.87609 147.811 2.56848Z" fill="#E72410"/>
<path d="M136.098 9.62487V8.60772C134.981 8.67739 133.927 8.64952 132.987 8.55198C132.924 8.55198 132.924 8.39871 132.987 8.39871C134.829 8.21758 136.505 7.92497 137.698 7.59057C138.308 7.42337 138.791 7.24223 139.108 7.06109C139.756 7.67417 139.984 7.95284 139.984 8.12004C139.984 8.20364 139.895 8.27331 139.73 8.27331C139.641 8.27331 139.527 8.25938 139.4 8.20364C138.664 8.34298 137.94 8.44051 137.241 8.52412V9.62487H139.121C139.679 8.95606 139.832 8.84459 139.921 8.84459C140.035 8.84459 140.187 8.95606 140.759 9.40193C141.013 9.597 141.114 9.70847 141.114 9.806C141.114 9.90354 141.076 9.94534 140.949 9.94534H137.241V11.074H139.806C140.403 10.3773 140.556 10.2658 140.644 10.2658C140.759 10.2658 140.911 10.3773 141.483 10.8371C141.737 11.0461 141.838 11.1576 141.838 11.2551C141.838 11.3526 141.8 11.3944 141.673 11.3944H137.241C137.241 12.0214 137.267 12.5927 137.267 12.8435C137.267 13.1919 137.165 13.4705 136.962 13.6656C136.746 13.8885 136.416 14 135.972 14C135.73 14 135.692 13.9582 135.629 13.6656C135.489 13.0804 135.324 12.9689 134.295 12.7042C134.232 12.6902 134.232 12.5091 134.295 12.5091C134.867 12.537 135.451 12.5648 135.895 12.5648C136.048 12.5648 136.098 12.523 136.098 12.3698V11.3944H133.14C132.822 11.3944 132.518 11.4223 132.099 11.478L131.959 10.9625C132.429 11.0461 132.772 11.074 133.127 11.074H136.098V9.94534H133.8C133.508 9.94534 133.203 9.97321 132.81 10.0289L132.67 9.5134C133.114 9.597 133.445 9.62487 133.775 9.62487H136.098ZM136.873 2.56056H139.781C140.403 1.78028 140.505 1.69668 140.606 1.69668C140.733 1.69668 140.848 1.78028 141.483 2.29582C141.775 2.53269 141.851 2.63023 141.851 2.74169C141.851 2.83923 141.8 2.88103 141.66 2.88103H132.251V3.43837C132.251 6.44802 132.124 8.48232 131.781 10.0568C131.451 11.5198 130.93 12.5788 130.143 13.6517C130.105 13.7074 129.978 13.6099 130.003 13.5402C130.41 12.3698 130.676 11.269 130.841 9.9732C131.006 8.67738 131.07 7.20043 131.07 5.2776C131.07 4.02358 131.032 2.8253 130.968 1.78028C131.667 2.12862 131.768 2.18435 132.416 2.56056H135.692V1.82208C135.692 1.57128 135.667 1.2926 135.629 1C137.14 1.15327 137.279 1.30654 137.279 1.45981C137.279 1.57128 137.14 1.69668 136.873 1.83601V2.56056ZM141.406 4.74812H139.146C139.552 5.20793 139.971 5.55627 140.441 5.79314C140.911 6.03001 141.406 6.16935 141.952 6.21115C142.016 6.21115 142.016 6.32262 141.952 6.33655C141.66 6.42015 141.457 6.67095 141.356 7.11683C141.317 7.25616 141.267 7.32583 141.19 7.32583C141.102 7.32583 140.911 7.21436 140.594 6.97749C140.327 6.78242 140.111 6.58735 139.908 6.36442C139.616 6.01608 139.362 5.612 139.044 4.99893C139.07 5.66774 139.095 6.29475 139.095 6.57342C139.095 6.92176 138.943 7.06109 138.537 7.06109C138.219 7.06109 138.156 6.96356 138.156 6.58735C138.156 6.35048 138.181 6.11361 138.206 5.62594C137.495 6.40622 136.86 6.85209 135.946 7.2701C135.883 7.29796 135.832 7.15863 135.883 7.11683C136.721 6.43408 137.33 5.70954 137.787 4.74812H135.032L135.045 5.22187C135.87 5.30547 136.251 5.55627 136.251 5.98821C136.251 6.25295 136.086 6.46195 135.883 6.46195C135.705 6.46195 135.629 6.39228 135.413 6.03001C135.273 5.82101 135.159 5.65381 135.045 5.54234C135.057 6.18328 135.07 6.99143 135.07 7.2283C135.07 7.59057 134.943 7.6881 134.486 7.6881C134.232 7.6881 134.13 7.59057 134.13 7.3537C134.13 7.20043 134.156 6.58735 134.168 5.86281C133.533 6.51769 132.911 6.93569 132.276 7.2283C132.213 7.25616 132.137 7.14469 132.187 7.10289C133.026 6.33655 133.521 5.63987 133.902 4.74812H133.33C133.038 4.74812 132.772 4.77599 132.518 4.83173L132.416 4.31618C132.683 4.39979 132.924 4.42765 133.343 4.42765H134.118V4.00965C134.118 3.71704 134.118 3.61951 134.079 3.10397C135.172 3.2433 135.349 3.3269 135.349 3.49411C135.349 3.60557 135.273 3.67524 135.032 3.80064V4.42765H135.756C136.06 3.96785 136.175 3.85638 136.302 3.85638C136.416 3.85638 136.492 3.92605 136.86 4.26045C136.937 4.33012 136.987 4.38585 137.025 4.42765H138.13V3.85638C138.13 3.50804 138.13 3.45231 138.079 3.10397C139.273 3.2851 139.375 3.31297 139.375 3.48017C139.375 3.57771 139.298 3.66131 139.083 3.80064V4.42765H140.022C140.429 3.89818 140.581 3.78671 140.67 3.78671C140.784 3.78671 140.924 3.89818 141.305 4.23258C141.47 4.38585 141.571 4.51125 141.571 4.60879C141.571 4.70632 141.533 4.74812 141.406 4.74812Z" fill="#E72410"/>
<path d="M125.031 7.40073H127.242C127.694 6.90619 127.798 6.82142 127.901 6.82142C128.03 6.82142 128.147 6.90619 128.677 7.34421C128.922 7.55616 129 7.65507 129 7.7681C129 7.95179 128.935 8.02244 128.509 8.17786C126.518 11.7951 123.79 13.4341 119.201 13.9993C119.136 14.0134 119.097 13.8156 119.162 13.8015C121.476 13.1232 123.221 12.2613 124.605 11.0886H124.566C124.281 11.0886 124.204 11.0038 124.023 10.4669C123.842 9.87342 123.596 9.49192 123.26 9.18107C122.329 9.85929 121.269 10.3821 119.99 10.7777C119.925 10.7918 119.847 10.6647 119.899 10.6364C121.476 9.78864 122.976 8.36155 123.932 6.92032C124.243 6.45405 124.488 5.98777 124.643 5.53562C125.794 5.95951 126.065 6.07254 126.065 6.31275C126.065 6.46817 125.962 6.53882 125.587 6.60947C125.406 6.89206 125.225 7.1464 125.031 7.40073ZM127.242 7.72571H124.773C124.398 8.20612 123.945 8.61588 123.48 8.99738C124.579 9.23759 125.135 9.68974 125.135 10.3397C125.135 10.4527 125.109 10.5516 125.083 10.6506C125.923 9.83103 126.621 8.87022 127.242 7.72571ZM122.64 2.8086H124.656C125.109 2.32819 125.212 2.24341 125.316 2.24341C125.445 2.24341 125.561 2.32819 126.078 2.76621C126.324 2.97815 126.402 3.07706 126.402 3.1901C126.402 3.34552 126.376 3.40204 125.897 3.58573C124.088 6.75077 121.696 8.5311 118.063 9.33649C117.999 9.35062 117.973 9.18107 118.037 9.15281C119.679 8.44633 121.062 7.5279 122.187 6.43992C122.161 6.45405 122.123 6.45405 122.084 6.45405C121.877 6.45405 121.761 6.32688 121.618 5.94538C121.399 5.36606 121.218 5.06934 120.907 4.74436C120.17 5.36606 119.317 5.84647 118.244 6.31275C118.18 6.34101 118.115 6.18558 118.167 6.14319C119.343 5.3378 120.429 4.12265 121.218 2.87924C121.618 2.25754 121.929 1.60757 122.123 1C123.273 1.43802 123.558 1.60758 123.558 1.81952C123.558 1.97495 123.467 2.04559 123.079 2.11624C122.937 2.35645 122.782 2.59665 122.64 2.8086ZM124.643 3.13358H122.407C122.019 3.6705 121.58 4.16504 121.088 4.58893C122.097 4.77262 122.64 5.18238 122.64 5.77582C122.64 5.8606 122.627 5.95951 122.588 6.03016C123.415 5.16825 124.088 4.1933 124.643 3.13358Z" fill="#E72410"/>
<g clip-path="url(#clip0_66_649)">
<path d="M25.7156 91.831C30.6338 93.4564 31.1485 93.9566 31.1485 95.0722C31.1485 95.9859 30.7768 96.3899 28.8419 96.9958C28.3177 98.0057 27.7268 99.0252 27.2025 99.9389H43.2914C46.4177 96.0821 47.0182 95.4762 47.6091 95.4762C48.3526 95.4762 48.953 96.0821 52.0031 99.5349C53.4137 101.16 53.8617 101.862 53.8617 102.68C53.8617 104.305 53.49 104.604 50.6591 105.517C47.5329 109.98 44.1016 113.933 40.3844 117.28C41.795 117.886 43.2152 118.396 44.7783 118.799C51.6313 120.829 59.8188 121.839 69.7981 121.839C70.1698 121.839 70.0936 122.849 69.7218 122.954C67.2627 123.964 65.9951 125.897 65.1087 129.85C64.6607 132.284 64.3652 132.793 63.0975 132.793C62.2778 132.793 60.4955 132.486 58.4081 131.986C52.2985 130.466 46.3415 128.34 40.6131 125.195C38.6783 124.08 36.8196 122.868 35.104 121.55C25.6489 128.244 14.2494 131.889 0.476658 132.803C0.104935 132.803 -0.190536 131.582 0.181186 131.485C12.0191 128.34 22.2939 123.378 30.3383 116.991C27.5838 113.75 25.0484 110.095 23.0373 106.046C17.3757 113.24 10.3797 118.723 2.41152 121.656C2.0398 121.762 1.74433 121.05 2.0398 120.742C9.48377 114.558 14.6212 108.066 18.7959 100.776C20.4353 98.0345 21.7029 94.6875 22.6656 91.8503H19.1676V92.2542C19.1676 94.7837 17.8999 96.0052 14.6974 96.0052C12.5338 96.0052 11.8666 94.7933 11.8666 92.36C11.8666 88.9168 12.2383 85.666 12.2383 68.5366C12.2383 62.2466 12.1621 59.0053 11.9429 52.7249C15.6696 54.5523 16.2606 54.8504 19.8348 57.4857H27.803C28.3939 54.3407 28.7752 51.0995 29.0707 47.8583H9.62674C7.53938 47.8583 5.45202 48.0602 2.69746 48.4642L1.87776 44.7132C5.00404 45.3192 7.31063 45.5211 9.61721 45.5211H56.0062C59.5805 39.9428 60.4764 39.1349 60.9911 39.1349C61.6583 39.1349 62.5543 39.9428 66.1285 43.5976C67.7679 45.3192 68.3588 46.1271 68.3588 46.8388C68.3588 47.5505 68.1396 47.8487 67.3866 47.8487H37.4487C35.5901 51.3976 33.4265 54.5427 31.0437 57.4761H49.3629C51.8982 53.8309 52.4892 53.2154 53.0896 53.2154C53.8331 53.2154 54.5003 53.8213 57.3311 56.6586C58.5988 57.9762 59.0467 58.688 59.0467 59.4959C59.0467 60.4095 58.675 61.0155 56.8831 62.5351V67.5075C56.8831 80.482 57.1786 89.2054 57.1786 92.1388C57.1786 94.5721 55.9109 95.8898 52.7084 95.8898C50.8498 95.8898 50.1063 94.7741 50.1063 92.7447V91.831H25.687H25.7156ZM50.1349 59.794H19.1581V67.9018H50.1349V59.794ZM50.1349 70.239H19.1581V78.3468H50.1349V70.239ZM50.1349 80.684H19.1581V89.5035H50.1349V80.684ZM25.7156 102.276C25.1247 103.084 24.6005 103.901 24 104.709C26.8308 108.566 30.2526 111.605 33.8268 113.933C37.6203 110.384 40.8228 106.537 43.3581 102.276H25.7061H25.7156Z" fill="#E72410"/>
<path d="M123.926 51.4842C126.605 47.5313 127.205 46.9254 127.796 46.9254C128.54 46.9254 129.14 47.5313 133.305 52.1959C135.24 54.4273 135.688 55.139 135.688 55.9469C135.688 57.2645 134.497 58.1782 132.638 58.0724C130.255 57.9667 130.036 58.0724 128.244 59.8998C127.205 60.8135 126.081 61.6214 123.478 63.141C123.107 63.343 122.811 63.0353 122.954 62.5351C123.993 58.7842 124.069 58.3802 124.746 53.8117H79.0243C79.3198 61.8234 76.9369 67.3921 73.1434 67.3921C70.9131 67.3921 69.35 65.1608 69.35 62.0158C69.35 59.6882 69.9409 58.3706 71.7328 57.1491C75.6025 54.4081 76.651 52.3883 77.1657 45.8963C77.2419 45.3865 77.9091 45.2903 77.9854 45.7905C78.4333 47.714 78.7288 49.6472 78.8813 51.465H98.0965V44.9729C98.0965 43.8573 98.0965 41.9337 97.944 39.1926C106.884 40.3083 107.628 41.424 107.628 42.4338C107.628 43.4437 106.884 44.1554 105.397 44.7614V51.4554H123.936L123.926 51.4842ZM85.9536 109.066C86.0298 118.396 86.0298 123.464 86.0298 128.427C86.0298 130.966 84.6859 132.178 81.8551 132.178C79.7677 132.178 78.8813 131.264 78.8813 129.033C78.8813 123.858 79.1768 118.588 79.1768 97.6018C79.1768 89.9941 79.1005 82.396 78.8813 74.6921C82.3031 76.4137 83.5707 77.3274 86.4778 79.4529H98.0202V65.9687C98.0202 62.7275 97.944 59.4767 97.6485 56.5432C106.589 57.4569 107.399 58.2648 107.399 59.0727C107.399 59.9864 106.579 60.7943 105.016 61.4002V79.4433H108.066C110.001 75.0864 111.488 71.3354 112.832 67.3825C113.728 64.7472 114.471 62.1119 115.139 59.1689C121.544 63.1218 123.631 64.8434 123.631 66.2668C123.631 67.5845 122.888 68.0942 120.133 67.9884C116.711 73.057 114.252 76.0963 110.602 79.4433H116.482C119.018 75.5865 119.609 74.9806 120.209 74.9806C120.953 74.9806 121.553 75.5865 124.231 78.5296C125.423 79.8472 125.871 80.559 125.871 81.3669C125.871 82.2805 125.499 82.9923 124.079 84.2041V90.3884C124.079 113.404 124.374 117.867 124.374 121.512C124.374 125.465 123.707 128.1 121.772 129.725C120.505 130.937 118.351 131.755 116.416 131.755C115.224 131.755 114.929 131.351 114.557 129.225C113.966 125.58 113.07 123.955 106.293 121.521C105.922 121.416 105.998 120.204 106.37 120.204C109.944 120.608 112.622 120.81 115.901 120.81C116.873 120.81 117.092 120.406 117.092 119.088V109.047H85.9631L85.9536 109.066ZM89.0798 77.0292C87.2212 77.0292 86.6208 76.1155 85.8773 70.9507C85.3531 66.69 84.6859 64.8723 82.5985 60.9097C82.3793 60.5058 82.5985 59.794 82.9703 59.996C90.338 63.2372 93.1688 66.2861 93.1688 71.2489C93.1688 74.4901 91.3769 77.0292 89.0703 77.0292H89.0798ZM117.073 81.7997H85.944V92.7448H117.073V81.7997ZM85.9536 106.739H117.083V95.0819H85.9536V106.739Z" fill="#E72410"/>
<path d="M161.604 50.9744C164.435 46.8195 165.026 46.2136 165.626 46.2136C166.37 46.2136 166.97 46.8195 170.02 50.4743C171.431 52.3017 171.879 53.0134 171.879 53.8213C171.879 54.937 171.135 55.7449 169.048 56.6586C162.271 75.6153 150.061 89.7055 134.945 95.4858C134.573 95.5916 134.201 94.274 134.497 94.0624C140.006 90.2056 145.067 85.2428 149.461 79.1547C149.089 79.4625 148.641 79.6645 148.193 79.6645C146.849 79.6645 146.335 78.9527 145.81 76.5194C144.914 72.4607 144.095 70.3352 142.312 68.0076C140.082 70.239 137.623 72.1625 135.011 73.8841C134.64 74.0861 134.192 73.2782 134.487 72.9704C139.777 66.7862 144.543 57.9666 147.669 49.349C149.013 45.5019 150.052 41.5393 150.643 37.9904C157.42 40.8276 159.431 42.1453 159.431 43.6649C159.431 44.8767 158.906 45.1845 156.6 45.5885C155.78 47.512 154.961 49.2336 154.141 50.9648H161.585L161.604 50.9744ZM157.582 108.662C151.625 118.396 146.258 123.772 138.595 127.725C138.223 127.927 137.699 127.013 138.004 126.715C142.551 121.848 146.716 115.058 149.547 107.96C150.519 105.527 151.339 102.988 151.93 100.564C158.783 104.209 160.565 105.536 160.565 106.95C160.565 108.066 159.898 108.374 157.591 108.672L157.582 108.662ZM172.546 107.854C172.546 114.847 172.765 120.829 172.765 123.772C172.765 127.629 172.098 129.244 170.458 130.87C169.115 131.986 166.732 132.899 164.797 132.899C163.758 132.899 163.605 132.697 163.31 130.668C162.862 127.629 161.747 126.109 155.123 123.676C154.751 123.57 154.827 122.252 155.199 122.252C159.669 122.656 162.872 122.858 164.578 122.858C165.617 122.858 165.693 122.656 165.693 121.137V97.2074H147.297C145.887 97.2074 144.466 97.4094 142.532 97.8133L141.712 94.0624C143.876 94.6683 145.505 94.8703 147.145 94.8703H184.231C187.586 89.1957 188.473 88.3782 188.997 88.3782C189.664 88.3782 190.484 89.1861 193.839 92.9371C195.326 94.5625 195.926 95.4762 195.926 96.1783C195.926 96.8804 195.707 97.1882 194.954 97.1882H172.536V107.835L172.546 107.854ZM151.034 75.1056C151.034 76.0193 150.881 76.933 150.586 77.6447C152.444 74.9036 154.236 71.9702 155.876 68.9213C155.428 69.2291 155.056 69.4311 154.608 69.4311C153.636 69.4311 153.264 68.8252 152.673 66.488C151.482 62.7371 150.814 61.1116 149.394 59.2939C147.459 62.2369 145.372 64.8722 143.065 67.1997C148.355 68.3154 151.034 71.1527 151.034 75.1056ZM152.968 53.3116C152.073 55.0332 151.11 56.6586 150.138 58.1782C155.199 58.8899 157.439 61.2174 157.439 65.0742C157.439 65.382 157.439 65.5839 157.362 65.8821C159.297 61.9292 160.937 57.6685 162.281 53.3116H152.968ZM172.174 80.5782C175.081 75.6057 175.968 74.7978 176.492 74.7978C177.159 74.7978 177.979 75.6057 180.962 78.8566C182.306 80.28 182.897 81.1841 182.897 81.8958C182.897 82.6075 182.678 82.9057 181.925 82.9057H161.518C160.25 82.9057 158.983 83.1076 157.277 83.5116L156.457 79.7606C158.392 80.3666 159.879 80.5685 161.375 80.5685H172.174V80.5782ZM189.826 49.3586C192.361 45.5115 192.952 44.896 193.553 44.896C194.296 44.896 194.821 45.5019 197.651 49.1567C198.919 50.7821 199.367 51.59 199.367 52.3979C199.367 53.6193 198.843 54.0233 196.984 54.3214C193.191 60.9097 189.988 64.8626 185.07 68.9213C190.207 75.3076 196.689 79.8664 204.724 82.9153C205.095 83.0211 205.095 83.9252 204.724 84.031C202.265 84.7427 201.226 86.3585 200.253 90.725C199.805 93.0525 199.586 93.4661 198.909 93.4661C198.385 93.4661 196.822 92.9563 194.964 91.3405C189.226 86.4739 184.165 80.1934 180.447 72.7877C177.245 66.4015 174.414 58.3898 172.031 48.0506C171.879 47.3389 171.507 46.733 171.211 46.531C170.687 46.127 170.315 45.3192 170.315 44.9056C170.315 44.3958 172.327 43.184 173.223 43.184C173.671 43.184 173.966 43.4918 173.966 43.9919C173.966 44.2997 173.594 45.3095 173.594 45.7135C173.594 46.4252 173.813 47.6371 174.261 48.9547C175.825 53.9271 180.066 62.2369 183.64 67.1036C186.099 62.5447 188.625 56.1585 189.75 51.6958H182.601C181.191 51.6958 179.771 51.8978 177.836 52.5037L177.016 48.5507C179.103 49.1567 180.59 49.3586 182.153 49.3586H189.826ZM191.914 125.994C190.122 125.994 189.159 124.878 187.815 121.021C184.984 113.211 182.897 109.364 178.064 103.786C177.769 103.478 178.064 102.67 178.436 102.776C188.711 105.613 195.859 112.509 195.859 119.809C195.859 123.358 194.22 125.994 191.914 125.994Z" fill="#E72410"/>
<path d="M60.2189 147.826C63.574 147.826 64.3746 147.663 65.1752 147.172C66.0902 146.605 66.6907 145.979 67.377 145.085C67.539 144.893 67.6534 144.864 68.0156 144.95C68.3778 145.027 68.454 145.114 68.4159 145.306C67.9393 146.691 66.9385 149.096 66.2618 150.509C63.5454 150.452 61.4294 150.452 58.5509 150.452C55.6725 150.452 53.2801 150.452 50.6399 150.509C50.2396 150.509 50.1252 150.481 50.1252 150.048C50.1252 149.615 50.1634 149.557 50.3635 149.288C52.4414 146.739 53.995 145.277 57.35 142.354C60.7432 139.401 62.6685 137.968 62.6685 135.448C62.6685 133.197 61.5057 131.572 59.2372 131.572C57.3214 131.572 56.3969 132.303 55.9203 133.14C55.682 133.544 55.5581 134.246 55.5581 135.121C55.5581 135.881 54.0426 136.39 52.5653 136.39C51.4501 136.39 50.6495 136.169 50.6495 135.361C50.6495 133.63 53.8901 130.754 59.2372 130.754C64.5843 130.754 67.5104 132.918 67.5104 135.554C67.5104 139.026 63.8313 140.324 59.7996 142.873C55.3675 145.604 54.3667 146.451 53.1657 147.826H60.238H60.2189Z" fill="#E72410"/>
<path d="M96.9813 140.834C96.9813 147.066 93.6644 150.99 88.1172 150.99C82.5699 150.99 79.1672 147.249 79.1672 140.997C79.1672 134.746 82.446 130.754 88.1172 130.754C93.7883 130.754 96.9813 134.659 96.9813 140.834ZM83.8376 140.92C83.8376 146.557 84.6763 150.154 88.1172 150.154C91.558 150.154 92.311 146.547 92.311 140.92C92.311 135.294 91.5103 131.601 88.1172 131.601C84.724 131.601 83.8376 135.256 83.8376 140.92Z" fill="#E72410"/>
<path d="M117.912 147.826C121.267 147.826 122.068 147.663 122.868 147.172C123.783 146.605 124.384 145.979 125.07 145.085C125.232 144.893 125.347 144.864 125.709 144.95C126.071 145.027 126.147 145.114 126.109 145.306C125.633 146.691 124.632 149.096 123.955 150.509C121.239 150.452 119.123 150.452 116.244 150.452C113.366 150.452 110.973 150.452 108.333 150.509C107.933 150.509 107.818 150.481 107.818 150.048C107.818 149.615 107.857 149.557 108.057 149.288C110.135 146.739 111.688 145.277 115.043 142.354C118.436 139.401 120.362 137.968 120.362 135.448C120.362 133.197 119.199 131.572 116.93 131.572C115.015 131.572 114.09 132.303 113.614 133.14C113.375 133.544 113.251 134.246 113.251 135.121C113.251 135.881 111.736 136.39 110.259 136.39C109.143 136.39 108.343 136.169 108.343 135.361C108.343 133.63 111.583 130.754 116.93 130.754C122.278 130.754 125.204 132.918 125.204 135.554C125.204 139.026 121.525 140.324 117.493 142.873C113.061 145.604 112.06 146.451 110.859 147.826H117.931H117.912Z" fill="#E72410"/>
<path d="M141.855 140.863C142.97 139.372 145.096 138.67 147.173 138.67C152.244 138.67 154.884 141.19 154.884 144.681C154.884 148.172 151.605 150.99 146.173 150.99C140.74 150.99 137.022 148.067 137.022 143.373C137.022 138.68 140.378 135.679 145.134 133.13C147.011 132.13 150.366 130.88 151.806 130.61C152.12 130.61 152.32 130.61 152.883 131.13C153.397 131.591 153.197 131.937 152.806 131.937C150.328 131.995 148.374 132.563 146.897 133.294C144.104 134.679 142.227 137.275 141.626 140.853H141.864L141.855 140.863ZM142.131 141.979C141.807 142.469 141.617 142.815 141.617 143.662C141.617 148.028 143.37 150.163 146.173 150.163C148.975 150.163 150.166 147.778 150.166 144.72C150.166 141.959 149.003 139.738 146.049 139.738C144.295 139.738 142.97 140.603 142.131 141.988V141.979Z" fill="#E72410"/>
</g>
<defs>
<clipPath id="clip0_66_649">
<rect width="205" height="113" fill="white" transform="translate(0 38)"/>
</clipPath>
</defs>
</svg>
