<svg width="211" height="202" viewBox="0 0 211 202" fill="none" xmlns="http://www.w3.org/2000/svg">
<path d="M177.952 155.347C176.358 156.144 174.741 156.964 173.081 157.783C173.671 156.786 174.283 155.79 174.938 154.815C177.231 151.404 179.962 148.237 182.299 144.849C184.636 141.46 186.58 137.872 188.153 134.085C190.228 129.079 191.516 123.675 193.526 118.603C193.526 120.84 193.155 123.077 192.259 125.247L200.974 123.321C199.969 122.435 199.249 121.482 198.615 120.53C197.217 118.492 196.344 116.233 195.71 113.885C198.004 109.301 200.625 104.916 203.442 100.641C205.758 97.1858 208.16 93.8415 211 90.785L203.071 86.6433C202.241 90.7629 200.952 94.7052 199.533 98.6033C198.091 102.391 196.54 106.134 194.815 109.766C194.05 106.067 193.504 102.324 193.045 98.559C192.106 90.0541 191.232 81.1506 189.223 72.8451C186.645 61.3724 181.884 50.2762 179.328 38.7813C179.437 38.8256 179.547 38.8478 179.634 38.892C184.439 40.7303 189.157 43.1445 192.958 46.7989L195.754 38.2055C190.555 38.8699 185.357 37.9618 180.398 36.5443C179.852 36.3893 179.306 36.2121 178.76 36.0349C178.717 35.8135 178.673 35.592 178.629 35.3484C177.865 30.9409 177.734 26.2898 179.175 21.9488L170.46 23.8756C173.387 27.0428 175.156 31.0516 176.27 35.1712C172.885 33.9309 169.608 32.4691 166.375 30.8301C161.832 28.571 157.311 26.2012 152.571 24.4515C147.853 22.6575 142.982 21.3951 137.958 20.5091C134.529 19.889 131.078 19.3353 127.692 18.538C134.332 18.25 140.972 18.2057 147.613 18.3608C152.178 18.4937 156.743 18.7151 161.308 19.2467L160.762 10.2103C156.306 11.3177 151.806 12.0929 147.285 12.8016C138.286 14.1748 129.243 15.105 120.178 15.6587C119.523 15.6587 118.868 15.6587 118.212 15.6587C105.522 11.2734 93.006 6.29006 81.1236 0L78.3277 8.59346C82.2157 9.14716 86.0382 9.92234 89.8607 10.764C88.2006 13.6875 85.8853 16.1017 83.2642 18.095C81.9973 18.1836 80.7086 18.2057 79.4199 18.2943C70.3115 18.6044 61.1157 18.538 52.0729 17.0762L52.6189 26.1126C57.053 24.7616 61.5526 23.8978 66.074 23.1448C69.9183 22.5246 73.7626 22.0374 77.6069 21.6608C74.5271 23.1891 71.1852 24.2965 68.0617 25.6918C63.9771 27.5522 60.3731 30.1657 56.9001 33.0007C52.9466 36.345 49.1678 39.9109 44.8866 42.7901C46.4812 39.0692 48.578 35.5477 51.3084 32.5355L43.03 29.5456C43.3358 33.1778 42.7679 36.8101 41.9597 40.3095C41.5447 42.1257 41.0205 43.8975 40.3871 45.6251C39.6007 46.1123 38.8144 46.5774 38.1591 46.9982C25.7743 54.44 13.1711 61.6603 0 67.6403L4.73985 75.3035C6.13778 74.0632 8.47495 72.1806 9.91656 71.0068C15.137 66.8208 20.5321 62.8341 25.9709 58.9582C30.0118 56.079 34.1837 53.1997 38.3557 50.4312C36.8704 53.5541 35.1448 56.5662 33.3974 59.5562C29.8589 65.7355 27.7183 72.4686 26.9101 79.5338C26.7136 80.907 26.5388 82.3023 26.3204 83.6755L18.5444 84.9822C19.2434 85.691 19.7676 86.444 20.2481 87.197C21.7771 89.589 22.7164 92.2025 23.3061 94.9046C22.6508 96.5657 21.9519 98.1825 21.1655 99.7772C19.5273 103.011 17.7581 106.089 15.268 108.814L23.5464 111.804C23.3716 108.791 23.6993 105.912 24.2235 103.011C24.2235 103.365 24.2453 103.697 24.2672 104.052C24.3109 107.374 24.1798 110.74 24.3764 114.063C24.573 117.363 25.0972 120.619 25.8617 123.83C26.7572 127.462 27.9804 131.05 29.0289 134.683C28.0241 133.464 27.063 132.202 26.0801 130.962C23.9177 128.038 21.8426 125.026 20.1171 121.682L13.6953 127.972C16.9281 129.832 19.8331 132.047 22.629 134.328C25.403 136.654 28.1115 139.068 30.6452 141.637C30.7108 142.102 30.7981 142.567 30.8418 143.032C31.7374 149.677 32.2179 156.277 31.1913 163.01L39.9939 161.526C38.3775 158.447 37.2636 155.302 36.3025 152.113C35.7346 150.164 35.2104 148.193 34.7517 146.222C35.7127 147.418 36.652 148.636 37.5257 149.92C40.6055 154.417 43.8164 158.824 47.8791 162.456C51.8763 166.133 56.638 168.99 60.5915 172.667C60.657 172.733 60.7226 172.799 60.8099 172.866C57.1622 171.891 53.6237 170.607 50.2599 168.768L48.7965 177.694C51.1773 177.251 53.5145 177.14 55.808 177.118C59.0407 177.118 62.2734 177.384 65.4624 177.827C66.2488 178.779 67.0132 179.754 67.7559 180.751C69.9402 183.785 71.9278 186.863 73.2821 190.451L79.7038 184.161C76.5585 182.81 73.8281 180.928 71.1633 178.89C72.8234 179.245 74.4616 179.665 76.0998 180.13C82.6744 182.079 89.3146 183.896 96.1732 184.56C102.442 185.18 108.776 185.136 115.045 185.69C107.553 189.056 99.7554 191.802 91.6736 193.286L95.4524 201.481C97.4837 199.665 99.6462 198.093 101.83 196.564C107.575 192.644 113.625 189.211 119.894 186.265C121.096 186.443 122.297 186.664 123.498 186.93C134.769 189.1 145.909 191.692 156.699 195.789L158.163 186.863C153.51 187.063 148.923 186.863 144.336 186.598C137.543 186.133 130.75 185.468 124.044 184.427C128.413 182.7 132.978 181.437 137.456 180.064C142.501 178.514 147.394 176.587 151.981 174.084C157.202 171.205 161.985 167.417 167.14 164.361C164.803 168.015 162.007 171.315 158.599 173.973L166.528 178.115C166.528 176.963 166.638 175.878 166.79 174.793C167.468 170.496 168.8 166.354 170.613 162.456C171.137 162.19 171.661 161.947 172.186 161.725L175.746 160.086C186.536 155.258 197.458 150.74 208.881 147.573L205.102 139.378C196.453 145.513 187.279 150.563 177.908 155.413L177.952 155.347ZM93.2244 11.4727C96.6537 12.2922 100.039 13.156 103.425 14.0862C101 14.1969 98.6196 14.5734 96.2606 15.1714C95.2995 15.4151 94.3602 15.6808 93.3992 15.9688C92.2852 14.1526 90.778 11.7163 90.2101 10.7861C91.2149 11.0076 92.2197 11.2512 93.2244 11.4727ZM163.667 161.836C158.687 163.519 153.466 164.693 148.617 166.687C143.768 168.658 139.181 171.249 134.791 174.173C130.401 177.096 126.076 180.197 121.401 182.633C120.746 182.965 120.091 183.275 119.436 183.586C118.693 183.453 117.95 183.32 117.208 183.165C110.524 181.747 104.015 179.178 97.309 177.672C92.8531 176.653 88.3317 175.989 83.7666 175.701C79.2014 175.413 74.5926 175.302 70.0712 174.66C68.5859 174.438 67.1006 174.173 65.6153 173.885C64.5669 172.844 63.5621 171.758 62.601 170.629C59.1062 166.509 56.4414 161.57 52.9466 157.406C50.6313 154.616 48.0538 152.113 45.2361 149.832C42.4184 147.573 39.426 145.447 36.7612 143.01C35.669 141.991 34.6206 140.95 33.6158 139.887C33.2882 137.451 33.0698 135.015 33.0261 132.534C32.9387 129.212 32.9606 125.868 32.6548 122.568C32.3708 119.267 31.8466 116.034 30.9729 112.822C30.121 109.633 28.9197 106.488 27.9149 103.321C27.1286 100.752 26.4296 98.0717 26.0583 95.3918C26.5388 93.8636 27.0849 92.3575 27.6965 90.8958C29.0507 87.6178 30.9073 84.5836 32.7203 81.5493C36.4991 75.5471 39.0328 68.947 40.1249 61.9039C40.7147 58.4045 41.1516 54.8387 41.9597 51.4057C42.3311 49.9661 42.7461 48.5265 43.2048 47.0868C44.7993 46.0237 46.4156 44.9828 48.0975 44.0747C53.9295 40.8411 60.4605 38.8035 66.1614 35.2819C70.0712 33.0671 73.3476 29.9221 76.6022 26.8435C79.0267 24.6065 81.7134 22.5911 84.6403 21.0628C86.344 21.0185 88.0696 21.0628 89.7733 21.3065C93.2026 21.7273 96.6319 22.5025 100.083 22.5911C102.355 22.6575 104.626 22.5246 106.876 22.1038C108.864 21.7716 111.616 20.8857 113.582 20.3098C115.569 19.7118 117.579 19.2245 119.589 18.9588C120.462 19.2467 121.336 19.5346 122.231 19.8447C124.59 20.7085 126.928 21.7051 129.221 22.7904C131.515 23.8978 133.786 25.0716 136.058 26.2012C142.873 29.7006 150.015 32.159 157.486 33.6208C163.995 34.8389 170.591 35.8356 176.925 37.8732C178.629 45.5365 179.437 53.7091 180.267 61.4831C181.403 72.2914 183.828 82.856 187.323 93.1106C189.288 99.0684 191.429 105.735 192.674 111.848C192.783 112.335 192.892 112.822 192.98 113.287C192.63 113.952 192.259 114.616 191.91 115.281C188.873 120.641 184.658 125.314 181.469 130.563C179.328 134.062 177.581 137.739 176.226 141.637C174.85 145.535 173.889 149.633 172.47 153.486C171.749 155.435 170.919 157.362 170.001 159.245C167.904 160.219 165.786 161.105 163.667 161.814V161.836Z" fill="#E72410"/>
</svg>
