<svg width="110" height="115" viewBox="0 0 110 115" fill="none" xmlns="http://www.w3.org/2000/svg">
<path d="M23.4954 29.0061L25.4808 19.6512C25.8739 18.0492 25.8739 16.4472 25.3432 15.2407L24.1441 12.0367C23.2202 9.62382 23.3382 7.36915 24.2817 4.81781L26.7978 1.21824C27.7217 0.150242 28.9207 -0.245314 30.1198 0.150242C36.7639 2.82025 42.1892 7.2307 46.3171 13.1047C48.047 15.5176 48.4401 18.4447 47.5162 21.5103C46.5923 24.4572 45.5309 26.8503 44.0566 28.9863C46.4547 31.3992 48.8332 34.3263 50.8186 37.8072C51.2117 39.0137 51.3493 40.0817 50.9562 41.1497C50.563 42.0792 50.0323 42.8901 49.0888 43.5626C44.5677 45.6986 41.1277 48.3686 39.1424 51.9681C47.7718 48.3686 57.0498 45.9557 66.7407 44.4921C74.3087 43.2857 81.8766 43.8197 89.3069 46.0941C94.3587 47.439 98.6047 50.2277 101.907 54.2426C104.954 57.8421 107.077 61.857 108.138 66.1291C110.124 72.814 109.868 79.6175 107.47 86.4211C104.679 94.9651 99.2337 101.254 91.0171 105.526C82.3877 109.541 72.5592 111.796 61.8265 112.073C71.9105 103.667 80.0092 94.3125 86.2404 84.028C88.3634 80.29 89.5625 76.1564 89.9556 71.746C90.3487 68.7991 89.818 65.5951 88.501 62.6679C87.3019 59.6024 85.1789 57.7235 82.3877 56.6555C77.0803 54.5195 71.6353 54.7766 66.1903 57.4664C54.7696 62.2724 44.0173 68.0079 33.9333 74.6928C32.7342 82.8413 32.7342 91.3853 34.0709 100.345C34.7392 104.617 34.2085 108.75 32.4786 112.627C32.0855 113.556 31.4172 114.09 30.4933 114.09C29.6874 114.347 28.7635 114.229 28.0951 113.813C25.1663 112.073 23.3185 109.798 22.257 107.128C19.4657 99.9096 18.0111 92.8291 17.8735 86.164L14.4139 88.9724C13.2148 89.7833 11.8978 90.0404 10.3056 89.6449L8.32024 89.1109C7.00323 88.5769 5.66655 87.5089 4.74268 86.164C3.01287 83.3555 1.69585 80.6855 0.496775 78.0155C-0.564701 74.8115 0.103636 71.746 2.22659 69.076C8.59544 62.2724 14.0404 55.1919 18.6795 47.973C16.812 48.6455 14.5712 49.8519 12.0354 51.4539C9.91246 52.6604 7.78951 52.7988 5.66655 51.8495C3.79914 51.3155 2.34453 49.9706 1.28305 47.973C7.12117 39.5674 14.4139 33.2781 23.4561 29.0061H23.4954Z" fill="#E72410"/>
</svg>
